<?xml version="1.0" encoding="UTF-8"?>
<svg xmlns="http://www.w3.org/2000/svg" width="800.000" height="600.000" viewBox="0.0 0.0 800.000 600.000" version="1.1">
  <title>Produce by Acme CAD Converter</title>
  <desc>Produce by Acme CAD Converter</desc>
<polyline points="255.58,234.32 256.56,233.76" style="fill:none;stroke:black;stroke-width:0.5"/>
<polyline points="255.58,237.19 256.56,236.63" style="fill:none;stroke:black;stroke-width:0.5"/>
<polyline points="255.58,240.06 256.56,239.5" style="fill:none;stroke:black;stroke-width:0.5"/>
<polyline points="255.58,242.94 256.56,242.37" style="fill:none;stroke:black;stroke-width:0.5"/>
<polyline points="255.58,245.81 256.56,245.24" style="fill:none;stroke:black;stroke-width:0.5"/>
<polyline points="255.58,248.68 256.56,248.11" style="fill:none;stroke:black;stroke-width:0.5"/>
<polyline points="255.58,251.55 256.56,250.98" style="fill:none;stroke:black;stroke-width:0.5"/>
<polyline points="288.87,232.33 289.64,231.89" style="fill:none;stroke:black;stroke-width:0.5"/>
<polyline points="255.58,254.42 256.56,253.86" style="fill:none;stroke:black;stroke-width:0.5"/>
<polyline points="288.87,235.2 289.84,234.64" style="fill:none;stroke:black;stroke-width:0.5"/>
<polyline points="255.58,257.29 257.34,256.28" style="fill:none;stroke:black;stroke-width:0.5"/>
<polyline points="288.87,238.08 289.84,237.51" style="fill:none;stroke:black;stroke-width:0.5"/>
<polyline points="255.58,260.16 258.98,258.2" style="fill:none;stroke:black;stroke-width:0.5"/>
<polyline points="288.87,240.95 289.84,240.38" style="fill:none;stroke:black;stroke-width:0.5"/>
<polyline points="255.58,263.03 260.62,260.12" style="fill:none;stroke:black;stroke-width:0.5"/>
<polyline points="288.87,243.82 289.84,243.25" style="fill:none;stroke:black;stroke-width:0.5"/>
<polyline points="255.58,265.91 262.27,262.04" style="fill:none;stroke:black;stroke-width:0.5"/>
<polyline points="288.87,246.69 289.84,246.12" style="fill:none;stroke:black;stroke-width:0.5"/>
<polyline points="255.58,268.78 263.93,263.96" style="fill:none;stroke:black;stroke-width:0.5"/>
<polyline points="288.87,249.56 289.84,248.99" style="fill:none;stroke:black;stroke-width:0.5"/>
<polyline points="255.53,271.68 265.6,265.86" style="fill:none;stroke:black;stroke-width:0.5"/>
<polyline points="288.87,252.43 289.84,251.87" style="fill:none;stroke:black;stroke-width:0.5"/>
<polyline points="255.28,274.69 266.21,268.38" style="fill:none;stroke:black;stroke-width:0.5"/>
<polyline points="288.87,255.3 289.84,254.74" style="fill:none;stroke:black;stroke-width:0.5"/>
<polyline points="255.03,277.71 266.28,271.21" style="fill:none;stroke:black;stroke-width:0.5"/>
<polyline points="284.13,260.91 289.84,257.61" style="fill:none;stroke:black;stroke-width:0.5"/>
<polyline points="254.77,280.73 267.55,273.35" style="fill:none;stroke:black;stroke-width:0.5"/>
<polyline points="279.22,266.62 289.84,260.48" style="fill:none;stroke:black;stroke-width:0.5"/>
<polyline points="254.52,283.74 269.74,274.96" style="fill:none;stroke:black;stroke-width:0.5"/>
<polyline points="279.22,269.49 289.84,263.35" style="fill:none;stroke:black;stroke-width:0.5"/>
<polyline points="255.99,285.77 270.56,277.36" style="fill:none;stroke:black;stroke-width:0.5"/>
<polyline points="278.23,272.92 289.84,266.22" style="fill:none;stroke:black;stroke-width:0.5"/>
<polyline points="260.96,285.77 271.72,279.56" style="fill:none;stroke:black;stroke-width:0.5"/>
<polyline points="277.46,276.24 289.84,269.09" style="fill:none;stroke:black;stroke-width:0.5"/>
<polyline points="265.93,285.77 273.7,281.29" style="fill:none;stroke:black;stroke-width:0.5"/>
<polyline points="280.75,277.22 289.92,271.92" style="fill:none;stroke:black;stroke-width:0.5"/>
<polyline points="270.9,285.77 276.75,282.4" style="fill:none;stroke:black;stroke-width:0.5"/>
<polyline points="284.03,278.19 290.15,274.66" style="fill:none;stroke:black;stroke-width:0.5"/>
<polyline points="275.88,285.77 280.03,283.37" style="fill:none;stroke:black;stroke-width:0.5"/>
<polyline points="286.63,279.56 290.37,277.4" style="fill:none;stroke:black;stroke-width:0.5"/>
<polyline points="280.85,285.77 282.95,284.56" style="fill:none;stroke:black;stroke-width:0.5"/>
<polyline points="288.24,281.5 290.6,280.14" style="fill:none;stroke:black;stroke-width:0.5"/>
<polyline points="289.05,283.91 290.83,282.88" style="fill:none;stroke:black;stroke-width:0.5"/>
<polyline points="290.8,285.77 291.06,285.62" style="fill:none;stroke:black;stroke-width:0.5"/>
<polyline points="261.2,285.75 257.34,283.52" style="fill:none;stroke:black;stroke-width:0.5"/>
<polyline points="265.08,285.12 259.39,281.83" style="fill:none;stroke:black;stroke-width:0.5"/>
<polyline points="265.08,282.25 264.36,281.83" style="fill:none;stroke:black;stroke-width:0.5"/>
<polyline points="269.94,263.36 272.06,262.14" style="fill:none;stroke:black;stroke-width:0.5"/>
<polyline points="266.49,268.22 268.28,267.19" style="fill:none;stroke:black;stroke-width:0.5"/>
<polyline points="274.91,263.36 275.75,262.87" style="fill:none;stroke:black;stroke-width:0.5"/>
<polyline points="267.16,270.71 269.19,269.53" style="fill:none;stroke:black;stroke-width:0.5"/>
<polyline points="272.13,270.71 274.16,269.53" style="fill:none;stroke:black;stroke-width:0.5"/>
<polyline points="271.47,268.22 273.25,267.19" style="fill:none;stroke:black;stroke-width:0.5"/>
<polyline points="276.44,268.22 278.22,267.19" style="fill:none;stroke:black;stroke-width:0.5"/>
<polyline points="277.11,270.71 279.01,269.6" style="fill:none;stroke:black;stroke-width:0.5"/>
<polyline points="280.85,299.34 279.96,298.44" style="fill:none;stroke:black;stroke-width:0.5"/>
<polyline points="281.43,296.39 279.96,294.92" style="fill:none;stroke:black;stroke-width:0.5"/>
<polyline points="281.43,292.88 279.96,291.41" style="fill:none;stroke:black;stroke-width:0.5"/>
<polyline points="281.43,289.36 279.96,287.89" style="fill:none;stroke:black;stroke-width:0.5"/>
<polyline points="281.43,295.5 283.19,292.45" style="fill:none;stroke:black;stroke-width:0.5"/>
<polyline points="282.08,299.34 283.19,297.42" style="fill:none;stroke:black;stroke-width:0.5"/>
<polyline points="284.95,299.34 285.97,297.57" style="fill:none;stroke:black;stroke-width:0.5"/>
<polyline points="287.82,299.34 288.84,297.57" style="fill:none;stroke:black;stroke-width:0.5"/>
<polyline points="290.69,299.34 291.71,297.57" style="fill:none;stroke:black;stroke-width:0.5"/>
<polyline points="293.57,299.34 294.58,297.57" style="fill:none;stroke:black;stroke-width:0.5"/>
<polyline points="296.44,299.34 297.45,297.57" style="fill:none;stroke:black;stroke-width:0.5"/>
<polyline points="299.31,299.34 300.33,297.57" style="fill:none;stroke:black;stroke-width:0.5"/>
<polyline points="302.18,299.34 303.2,297.57" style="fill:none;stroke:black;stroke-width:0.5"/>
<polyline points="305.05,299.34 306.07,297.57" style="fill:none;stroke:black;stroke-width:0.5"/>
<polyline points="307.92,299.34 308.94,297.57" style="fill:none;stroke:black;stroke-width:0.5"/>
<polyline points="312.32,291.73 312.9,290.72" style="fill:none;stroke:black;stroke-width:0.5"/>
<polyline points="310.79,299.34 311.81,297.57" style="fill:none;stroke:black;stroke-width:0.5"/>
<polyline points="312.68,296.07 314.22,293.4" style="fill:none;stroke:black;stroke-width:0.5"/>
<polyline points="313.66,299.34 314.58,297.74" style="fill:none;stroke:black;stroke-width:0.5"/>
<polyline points="258.24,232.87 256.54,229.93" style="fill:none;stroke:black;stroke-width:0.5"/>
<polyline points="261.11,232.87 259.42,229.93" style="fill:none;stroke:black;stroke-width:0.5"/>
<polyline points="263.98,232.87 262.29,229.93" style="fill:none;stroke:black;stroke-width:0.5"/>
<polyline points="269.31,237.11 268.17,235.15" style="fill:none;stroke:black;stroke-width:0.5"/>
<polyline points="265.92,231.25 265.16,229.93" style="fill:none;stroke:black;stroke-width:0.5"/>
<polyline points="272.62,237.88 272,236.81" style="fill:none;stroke:black;stroke-width:0.5"/>
<polyline points="275.25,237.46 274.72,236.55" style="fill:none;stroke:black;stroke-width:0.5"/>
<polyline points="271.47,230.91 270.9,229.93" style="fill:none;stroke:black;stroke-width:0.5"/>
<polyline points="277.46,236.31 276.94,235.41" style="fill:none;stroke:black;stroke-width:0.5"/>
<polyline points="274.34,230.91 273.77,229.93" style="fill:none;stroke:black;stroke-width:0.5"/>
<polyline points="279.25,234.45 278.67,233.44" style="fill:none;stroke:black;stroke-width:0.5"/>
<polyline points="281.21,232.87 279.63,230.13" style="fill:none;stroke:black;stroke-width:0.5"/>
<polyline points="284.08,232.87 282.39,229.93" style="fill:none;stroke:black;stroke-width:0.5"/>
<polyline points="286.95,232.87 285.26,229.93" style="fill:none;stroke:black;stroke-width:0.5"/>
<polyline points="289.26,231.89 288.13,229.93" style="fill:none;stroke:black;stroke-width:0.5"/>
<polyline points="281.52,288.25 283.22,287.27" style="fill:none;stroke:black;stroke-width:0.5"/>
<polyline points="282.39,290.62 283.45,290.01" style="fill:none;stroke:black;stroke-width:0.5"/>
<polyline points="289.3,286.64 290.8,285.77" style="fill:none;stroke:black;stroke-width:0.5"/>
<polyline points="289.52,289.38 291.29,288.36" style="fill:none;stroke:black;stroke-width:0.5"/>
<polyline points="500.03,233.56 501.01,232.58" style="fill:none;stroke:black;stroke-width:0.5"/>
<polyline points="500.03,237.07 501.01,236.1" style="fill:none;stroke:black;stroke-width:0.5"/>
<polyline points="500.03,240.59 501.01,239.61" style="fill:none;stroke:black;stroke-width:0.5"/>
<polyline points="500.03,244.11 501.01,243.13" style="fill:none;stroke:black;stroke-width:0.5"/>
<polyline points="500.03,247.62 501.01,246.64" style="fill:none;stroke:black;stroke-width:0.5"/>
<polyline points="500.03,251.14 501.01,250.16" style="fill:none;stroke:black;stroke-width:0.5"/>
<polyline points="500.03,254.66 501.01,253.68" style="fill:none;stroke:black;stroke-width:0.5"/>
<polyline points="500.03,258.17 501.74,256.46" style="fill:none;stroke:black;stroke-width:0.5"/>
<polyline points="500.03,261.69 503.35,258.37" style="fill:none;stroke:black;stroke-width:0.5"/>
<polyline points="500.03,265.21 504.95,260.28" style="fill:none;stroke:black;stroke-width:0.5"/>
<polyline points="533.31,231.92 533.35,231.89" style="fill:none;stroke:black;stroke-width:0.5"/>
<polyline points="500.03,268.72 506.56,262.19" style="fill:none;stroke:black;stroke-width:0.5"/>
<polyline points="533.31,235.44 534.29,234.46" style="fill:none;stroke:black;stroke-width:0.5"/>
<polyline points="499.92,272.35 508.16,264.1" style="fill:none;stroke:black;stroke-width:0.5"/>
<polyline points="499.6,276.18 509.77,266.02" style="fill:none;stroke:black;stroke-width:0.5"/>
<polyline points="533.31,238.95 534.29,237.98" style="fill:none;stroke:black;stroke-width:0.5"/>
<polyline points="533.31,242.47 534.29,241.49" style="fill:none;stroke:black;stroke-width:0.5"/>
<polyline points="499.28,280.02 510.21,269.09" style="fill:none;stroke:black;stroke-width:0.5"/>
<polyline points="533.31,245.99 534.29,245.01" style="fill:none;stroke:black;stroke-width:0.5"/>
<polyline points="498.96,283.86 510.65,272.16" style="fill:none;stroke:black;stroke-width:0.5"/>
<polyline points="533.31,249.5 534.29,248.53" style="fill:none;stroke:black;stroke-width:0.5"/>
<polyline points="500.56,285.77 512.17,274.16" style="fill:none;stroke:black;stroke-width:0.5"/>
<polyline points="533.31,253.02 534.29,252.04" style="fill:none;stroke:black;stroke-width:0.5"/>
<polyline points="504.08,285.77 513.34,276.5" style="fill:none;stroke:black;stroke-width:0.5"/>
<polyline points="528.3,261.55 534.29,255.56" style="fill:none;stroke:black;stroke-width:0.5"/>
<polyline points="507.59,285.77 513.93,279.43" style="fill:none;stroke:black;stroke-width:0.5"/>
<polyline points="524.11,269.26 534.29,259.07" style="fill:none;stroke:black;stroke-width:0.5"/>
<polyline points="511.11,285.77 515.63,281.25" style="fill:none;stroke:black;stroke-width:0.5"/>
<polyline points="521,275.88 534.29,262.59" style="fill:none;stroke:black;stroke-width:0.5"/>
<polyline points="514.63,285.77 534.29,266.11" style="fill:none;stroke:black;stroke-width:0.5"/>
<polyline points="518.14,285.77 534.29,269.62" style="fill:none;stroke:black;stroke-width:0.5"/>
<polyline points="521.66,285.77 534.45,272.98" style="fill:none;stroke:black;stroke-width:0.5"/>
<polyline points="525.18,285.77 534.72,276.23" style="fill:none;stroke:black;stroke-width:0.5"/>
<polyline points="528.69,285.77 534.99,279.47" style="fill:none;stroke:black;stroke-width:0.5"/>
<polyline points="532.21,285.77 535.26,282.72" style="fill:none;stroke:black;stroke-width:0.5"/>
<polyline points="513.97,272.23 513.27,271.54" style="fill:none;stroke:black;stroke-width:0.5"/>
<polyline points="518.04,272.79 516.96,271.71" style="fill:none;stroke:black;stroke-width:0.5"/>
<polyline points="515.76,270.51 515.07,269.82" style="fill:none;stroke:black;stroke-width:0.5"/>
<polyline points="513.79,268.54 512.65,267.39" style="fill:none;stroke:black;stroke-width:0.5"/>
<polyline points="519.2,270.44 517.8,269.03" style="fill:none;stroke:black;stroke-width:0.5"/>
<polyline points="516.55,267.78 515.58,266.81" style="fill:none;stroke:black;stroke-width:0.5"/>
<polyline points="520.28,268 519.51,267.22" style="fill:none;stroke:black;stroke-width:0.5"/>
<polyline points="522.94,267.14 522.16,266.36" style="fill:none;stroke:black;stroke-width:0.5"/>
<polyline points="518.53,266.24 517.77,265.48" style="fill:none;stroke:black;stroke-width:0.5"/>
<polyline points="519.49,263.69 518.73,262.93" style="fill:none;stroke:black;stroke-width:0.5"/>
<polyline points="500.03,230.17 500.17,229.93" style="fill:none;stroke:black;stroke-width:0.5"/>
<polyline points="501.34,232.87 503.04,229.93" style="fill:none;stroke:black;stroke-width:0.5"/>
<polyline points="504.21,232.87 505.91,229.93" style="fill:none;stroke:black;stroke-width:0.5"/>
<polyline points="507.08,232.87 508.78,229.93" style="fill:none;stroke:black;stroke-width:0.5"/>
<polyline points="509.62,233.45 510.24,232.38" style="fill:none;stroke:black;stroke-width:0.5"/>
<polyline points="511.09,230.91 511.65,229.93" style="fill:none;stroke:black;stroke-width:0.5"/>
<polyline points="511.18,235.72 511.69,234.83" style="fill:none;stroke:black;stroke-width:0.5"/>
<polyline points="513.96,230.91 514.52,229.93" style="fill:none;stroke:black;stroke-width:0.5"/>
<polyline points="513.18,237.23 513.67,236.39" style="fill:none;stroke:black;stroke-width:0.5"/>
<polyline points="516.83,230.91 517.39,229.93" style="fill:none;stroke:black;stroke-width:0.5"/>
<polyline points="515.55,238.09 516.07,237.19" style="fill:none;stroke:black;stroke-width:0.5"/>
<polyline points="519.7,230.91 520.27,229.93" style="fill:none;stroke:black;stroke-width:0.5"/>
<polyline points="518.39,238.16 519.04,237.02" style="fill:none;stroke:black;stroke-width:0.5"/>
<polyline points="522.57,230.91 523.14,229.93" style="fill:none;stroke:black;stroke-width:0.5"/>
<polyline points="522.17,236.57 526.01,229.93" style="fill:none;stroke:black;stroke-width:0.5"/>
<polyline points="527.18,232.87 528.88,229.93" style="fill:none;stroke:black;stroke-width:0.5"/>
<polyline points="530.05,232.87 531.75,229.93" style="fill:none;stroke:black;stroke-width:0.5"/>
<polyline points="532.93,232.87 533.12,232.54" style="fill:none;stroke:black;stroke-width:0.5"/>
<polyline points="533.49,231.89 534.29,230.5" style="fill:none;stroke:black;stroke-width:0.5"/>
<polyline points="501.18,290.62 498.75,286.41" style="fill:none;stroke:black;stroke-width:0.5"/>
<polyline points="504.05,290.62 501.25,285.77" style="fill:none;stroke:black;stroke-width:0.5"/>
<polyline points="506.93,290.62 504.12,285.77" style="fill:none;stroke:black;stroke-width:0.5"/>
<polyline points="509.8,290.62 506.99,285.77" style="fill:none;stroke:black;stroke-width:0.5"/>
<polyline points="512.67,290.62 511.59,288.76" style="fill:none;stroke:black;stroke-width:0.5"/>
<polyline points="511.58,288.74 509.87,285.77" style="fill:none;stroke:black;stroke-width:0.5"/>
<polyline points="514.59,288.99 514.47,288.76" style="fill:none;stroke:black;stroke-width:0.5"/>
<polyline points="521.28,290.62 520.21,288.76" style="fill:none;stroke:black;stroke-width:0.5"/>
<polyline points="524.15,290.62 522.74,288.18" style="fill:none;stroke:black;stroke-width:0.5"/>
<polyline points="527.02,290.62 524.22,285.77" style="fill:none;stroke:black;stroke-width:0.5"/>
<polyline points="529.9,290.62 527.09,285.77" style="fill:none;stroke:black;stroke-width:0.5"/>
<polyline points="532.77,290.62 529.96,285.77" style="fill:none;stroke:black;stroke-width:0.5"/>
<polyline points="535.64,290.62 532.83,285.77" style="fill:none;stroke:black;stroke-width:0.5"/>
<polyline points="498.25,292.33 501.2,290.62" style="fill:none;stroke:black;stroke-width:0.5"/>
<polyline points="498,295.34 504.96,291.32" style="fill:none;stroke:black;stroke-width:0.5"/>
<polyline points="497.75,298.36 504.92,294.22" style="fill:none;stroke:black;stroke-width:0.5"/>
<polyline points="499.17,300.41 504.92,297.09" style="fill:none;stroke:black;stroke-width:0.5"/>
<polyline points="504.14,300.41 505.84,299.43" style="fill:none;stroke:black;stroke-width:0.5"/>
<polyline points="509.11,300.41 510.81,299.43" style="fill:none;stroke:black;stroke-width:0.5"/>
<polyline points="514.09,300.41 515.78,299.43" style="fill:none;stroke:black;stroke-width:0.5"/>
<polyline points="529.39,291.58 531.04,290.62" style="fill:none;stroke:black;stroke-width:0.5"/>
<polyline points="519.06,300.41 520.75,299.43" style="fill:none;stroke:black;stroke-width:0.5"/>
<polyline points="524.03,300.41 525.73,299.43" style="fill:none;stroke:black;stroke-width:0.5"/>
<polyline points="529.4,294.45 535.93,290.68" style="fill:none;stroke:black;stroke-width:0.5"/>
<polyline points="529.4,297.32 536.15,293.41" style="fill:none;stroke:black;stroke-width:0.5"/>
<polyline points="529,300.41 536.38,296.15" style="fill:none;stroke:black;stroke-width:0.5"/>
<polyline points="533.98,300.41 536.61,298.89" style="fill:none;stroke:black;stroke-width:0.5"/>
<polyline points="523.51,340.18 523.97,339.72" style="fill:none;stroke:black;stroke-width:0.5"/>
<polyline points="523.51,343.7 524.2,343.01" style="fill:none;stroke:black;stroke-width:0.5"/>
<polyline points="523.51,347.22 524.2,346.52" style="fill:none;stroke:black;stroke-width:0.5"/>
<polyline points="523.51,350.73 524.2,350.04" style="fill:none;stroke:black;stroke-width:0.5"/>
<polyline points="523.51,354.25 524.2,353.56" style="fill:none;stroke:black;stroke-width:0.5"/>
<polyline points="523.51,357.77 524.2,357.07" style="fill:none;stroke:black;stroke-width:0.5"/>
<polyline points="523.51,361.28 524.67,360.13" style="fill:none;stroke:black;stroke-width:0.5"/>
<polyline points="523.51,364.8 525.86,362.45" style="fill:none;stroke:black;stroke-width:0.5"/>
<polyline points="523.51,368.31 527.05,364.78" style="fill:none;stroke:black;stroke-width:0.5"/>
<polyline points="523.48,371.86 528.24,367.1" style="fill:none;stroke:black;stroke-width:0.5"/>
<polyline points="523.2,375.66 529.43,369.43" style="fill:none;stroke:black;stroke-width:0.5"/>
<polyline points="522.91,379.47 530.62,371.76" style="fill:none;stroke:black;stroke-width:0.5"/>
<polyline points="547.05,355.33 547.74,354.64" style="fill:none;stroke:black;stroke-width:0.5"/>
<polyline points="522.8,383.1 530.71,375.18" style="fill:none;stroke:black;stroke-width:0.5"/>
<polyline points="547.05,358.85 547.74,358.15" style="fill:none;stroke:black;stroke-width:0.5"/>
<polyline points="525.03,384.38 531.51,377.89" style="fill:none;stroke:black;stroke-width:0.5"/>
<polyline points="547.05,362.36 547.74,361.67" style="fill:none;stroke:black;stroke-width:0.5"/>
<polyline points="527.26,385.67 532.86,380.06" style="fill:none;stroke:black;stroke-width:0.5"/>
<polyline points="547.05,365.88 547.74,365.19" style="fill:none;stroke:black;stroke-width:0.5"/>
<polyline points="529.49,386.95 533.15,383.29" style="fill:none;stroke:black;stroke-width:0.5"/>
<polyline points="547.05,369.39 547.74,368.7" style="fill:none;stroke:black;stroke-width:0.5"/>
<polyline points="531.72,388.24 534.22,385.74" style="fill:none;stroke:black;stroke-width:0.5"/>
<polyline points="540.54,379.42 547.74,372.22" style="fill:none;stroke:black;stroke-width:0.5"/>
<polyline points="533.95,389.52 536.13,387.34" style="fill:none;stroke:black;stroke-width:0.5"/>
<polyline points="538.28,385.19 547.74,375.74" style="fill:none;stroke:black;stroke-width:0.5"/>
<polyline points="536.19,390.81 547.74,379.25" style="fill:none;stroke:black;stroke-width:0.5"/>
<polyline points="538.42,392.09 547.74,382.77" style="fill:none;stroke:black;stroke-width:0.5"/>
<polyline points="540.65,393.38 547.8,386.23" style="fill:none;stroke:black;stroke-width:0.5"/>
<polyline points="542.88,394.66 548.02,389.52" style="fill:none;stroke:black;stroke-width:0.5"/>
<polyline points="545.11,395.95 548.25,392.81" style="fill:none;stroke:black;stroke-width:0.5"/>
<polyline points="547.34,397.23 548.48,396.1" style="fill:none;stroke:black;stroke-width:0.5"/>
<polyline points="535.97,382.15 535.7,381.88" style="fill:none;stroke:black;stroke-width:0.5"/>
<polyline points="532.43,378.61 532.24,378.41" style="fill:none;stroke:black;stroke-width:0.5"/>
<polyline points="536.14,378.8 535.42,378.08" style="fill:none;stroke:black;stroke-width:0.5"/>
<polyline points="534.73,377.39 534.01,376.67" style="fill:none;stroke:black;stroke-width:0.5"/>
<polyline points="538.14,377.29 537.09,376.24" style="fill:none;stroke:black;stroke-width:0.5"/>
<polyline points="536.4,375.55 535.75,374.89" style="fill:none;stroke:black;stroke-width:0.5"/>
<polyline points="535.09,374.23 534.05,373.2" style="fill:none;stroke:black;stroke-width:0.5"/>
<polyline points="537.41,373.04 536.76,372.39" style="fill:none;stroke:black;stroke-width:0.5"/>
<polyline points="523.51,338.69 523.87,338.06" style="fill:none;stroke:black;stroke-width:0.5"/>
<polyline points="524.99,341.1 526.03,339.3" style="fill:none;stroke:black;stroke-width:0.5"/>
<polyline points="527.14,342.35 528.18,340.54" style="fill:none;stroke:black;stroke-width:0.5"/>
<polyline points="529.3,343.59 530.34,341.78" style="fill:none;stroke:black;stroke-width:0.5"/>
<polyline points="530.8,345.95 531.16,345.33" style="fill:none;stroke:black;stroke-width:0.5"/>
<polyline points="532.14,343.63 532.49,343.03" style="fill:none;stroke:black;stroke-width:0.5"/>
<polyline points="532.24,348.44 532.55,347.9" style="fill:none;stroke:black;stroke-width:0.5"/>
<polyline points="534.3,344.87 534.65,344.27" style="fill:none;stroke:black;stroke-width:0.5"/>
<polyline points="533.97,350.41 534.29,349.86" style="fill:none;stroke:black;stroke-width:0.5"/>
<polyline points="536.45,346.11 536.8,345.51" style="fill:none;stroke:black;stroke-width:0.5"/>
<polyline points="536.02,351.84 536.38,351.2" style="fill:none;stroke:black;stroke-width:0.5"/>
<polyline points="538.61,347.35 538.96,346.75" style="fill:none;stroke:black;stroke-width:0.5"/>
<polyline points="538.55,352.42 539.25,351.21" style="fill:none;stroke:black;stroke-width:0.5"/>
<polyline points="540.76,348.59 541.11,347.99" style="fill:none;stroke:black;stroke-width:0.5"/>
<polyline points="542.22,351.03 543.27,349.23" style="fill:none;stroke:black;stroke-width:0.5"/>
<polyline points="544.38,352.27 545.42,350.47" style="fill:none;stroke:black;stroke-width:0.5"/>
<polyline points="546.53,353.51 547.57,351.71" style="fill:none;stroke:black;stroke-width:0.5"/>
<polyline points="526.52,389.21 523.08,383.26" style="fill:none;stroke:black;stroke-width:0.5"/>
<polyline points="530.82,391.68 527.38,385.74" style="fill:none;stroke:black;stroke-width:0.5"/>
<polyline points="533.81,391.89 533.8,391.88" style="fill:none;stroke:black;stroke-width:0.5"/>
<polyline points="539.42,396.64 538.47,394.99" style="fill:none;stroke:black;stroke-width:0.5"/>
<polyline points="543.72,399.11 540.29,393.17" style="fill:none;stroke:black;stroke-width:0.5"/>
<polyline points="548.02,401.59 544.59,395.64" style="fill:none;stroke:black;stroke-width:0.5"/>
<polyline points="522.3,387.55 522.97,387.16" style="fill:none;stroke:black;stroke-width:0.5"/>
<polyline points="522.08,390.55 525.46,388.6" style="fill:none;stroke:black;stroke-width:0.5"/>
<polyline points="521.85,393.55 526.97,390.59" style="fill:none;stroke:black;stroke-width:0.5"/>
<polyline points="523.5,395.47 526.97,393.47" style="fill:none;stroke:black;stroke-width:0.5"/>
<polyline points="525.99,396.9 527.05,396.29" style="fill:none;stroke:black;stroke-width:0.5"/>
<polyline points="528.48,398.34 529.17,397.94" style="fill:none;stroke:black;stroke-width:0.5"/>
<polyline points="530.97,399.77 531.66,399.37" style="fill:none;stroke:black;stroke-width:0.5"/>
<polyline points="533.46,401.21 534.15,400.81" style="fill:none;stroke:black;stroke-width:0.5"/>
<polyline points="535.95,402.64 536.64,402.24" style="fill:none;stroke:black;stroke-width:0.5"/>
<polyline points="538.44,404.07 539.13,403.67" style="fill:none;stroke:black;stroke-width:0.5"/>
<polyline points="540.93,405.51 541.62,405.11" style="fill:none;stroke:black;stroke-width:0.5"/>
<polyline points="544.28,400.7 545.38,400.07" style="fill:none;stroke:black;stroke-width:0.5"/>
<polyline points="544.28,403.57 547.87,401.5" style="fill:none;stroke:black;stroke-width:0.5"/>
<polyline points="543.42,406.94 549.01,403.71" style="fill:none;stroke:black;stroke-width:0.5"/>
<polyline points="545.91,408.37 549.2,406.47" style="fill:none;stroke:black;stroke-width:0.5"/>
<polyline points="548.4,409.81 549.39,409.24" style="fill:none;stroke:black;stroke-width:0.5"/>
<polyline points="265.36,343.52 266.05,343.12" style="fill:none;stroke:black;stroke-width:0.5"/>
<polyline points="265.36,346.4 266.05,346" style="fill:none;stroke:black;stroke-width:0.5"/>
<polyline points="265.36,349.27 266.05,348.87" style="fill:none;stroke:black;stroke-width:0.5"/>
<polyline points="265.36,352.14 266.05,351.74" style="fill:none;stroke:black;stroke-width:0.5"/>
<polyline points="265.36,355.01 266.05,354.61" style="fill:none;stroke:black;stroke-width:0.5"/>
<polyline points="265.36,357.88 266.05,357.48" style="fill:none;stroke:black;stroke-width:0.5"/>
<polyline points="265.36,360.75 266.05,360.35" style="fill:none;stroke:black;stroke-width:0.5"/>
<polyline points="288.89,329.94 289.59,329.54" style="fill:none;stroke:black;stroke-width:0.5"/>
<polyline points="288.89,332.81 289.59,332.41" style="fill:none;stroke:black;stroke-width:0.5"/>
<polyline points="288.89,335.68 289.59,335.28" style="fill:none;stroke:black;stroke-width:0.5"/>
<polyline points="288.89,338.55 289.59,338.15" style="fill:none;stroke:black;stroke-width:0.5"/>
<polyline points="288.89,341.42 289.59,341.02" style="fill:none;stroke:black;stroke-width:0.5"/>
<polyline points="288.89,344.29 289.59,343.89" style="fill:none;stroke:black;stroke-width:0.5"/>
<polyline points="288.89,347.16 289.59,346.76" style="fill:none;stroke:black;stroke-width:0.5"/>
<polyline points="265.36,363.62 266.87,362.75" style="fill:none;stroke:black;stroke-width:0.5"/>
<polyline points="288.1,350.49 289.59,349.63" style="fill:none;stroke:black;stroke-width:0.5"/>
<polyline points="265.36,366.49 268.98,364.4" style="fill:none;stroke:black;stroke-width:0.5"/>
<polyline points="285.98,354.59 289.59,352.51" style="fill:none;stroke:black;stroke-width:0.5"/>
<polyline points="265.36,369.37 271.12,366.04" style="fill:none;stroke:black;stroke-width:0.5"/>
<polyline points="283.84,358.69 289.59,355.38" style="fill:none;stroke:black;stroke-width:0.5"/>
<polyline points="265.36,372.24 272.87,367.9" style="fill:none;stroke:black;stroke-width:0.5"/>
<polyline points="265.36,375.11 272.87,370.77" style="fill:none;stroke:black;stroke-width:0.5"/>
<polyline points="282.07,362.59 289.59,358.25" style="fill:none;stroke:black;stroke-width:0.5"/>
<polyline points="282.07,365.46 289.59,361.12" style="fill:none;stroke:black;stroke-width:0.5"/>
<polyline points="265.17,378.09 274.52,372.69" style="fill:none;stroke:black;stroke-width:0.5"/>
<polyline points="280.44,369.27 289.77,363.88" style="fill:none;stroke:black;stroke-width:0.5"/>
<polyline points="264.96,381.08 276.05,374.68" style="fill:none;stroke:black;stroke-width:0.5"/>
<polyline points="284.43,369.84 289.98,366.63" style="fill:none;stroke:black;stroke-width:0.5"/>
<polyline points="264.76,384.07 278.15,376.33" style="fill:none;stroke:black;stroke-width:0.5"/>
<polyline points="288.35,370.45 290.19,369.39" style="fill:none;stroke:black;stroke-width:0.5"/>
<polyline points="264.55,387.06 284.75,375.39" style="fill:none;stroke:black;stroke-width:0.5"/>
<polyline points="289.09,372.89 290.4,372.14" style="fill:none;stroke:black;stroke-width:0.5"/>
<polyline points="266.74,386.57 266.6,386.49" style="fill:none;stroke:black;stroke-width:0.5"/>
<polyline points="269.23,385.13 266.6,383.62" style="fill:none;stroke:black;stroke-width:0.5"/>
<polyline points="271.72,383.7 268.94,382.1" style="fill:none;stroke:black;stroke-width:0.5"/>
<polyline points="272.07,381.03 271.43,380.66" style="fill:none;stroke:black;stroke-width:0.5"/>
<polyline points="273.04,367.8 281.91,362.68" style="fill:none;stroke:black;stroke-width:0.5"/>
<polyline points="283.63,386.51 282.6,385.48" style="fill:none;stroke:black;stroke-width:0.5"/>
<polyline points="283.63,383 282.6,381.96" style="fill:none;stroke:black;stroke-width:0.5"/>
<polyline points="283.63,379.48 282.6,378.44" style="fill:none;stroke:black;stroke-width:0.5"/>
<polyline points="283.63,381.19 283.88,380.76" style="fill:none;stroke:black;stroke-width:0.5"/>
<polyline points="283.63,386.16 284.88,384" style="fill:none;stroke:black;stroke-width:0.5"/>
<polyline points="286.39,386.36 287.64,384.2" style="fill:none;stroke:black;stroke-width:0.5"/>
<polyline points="290.69,383.88 291.94,381.72" style="fill:none;stroke:black;stroke-width:0.5"/>
<polyline points="294.99,381.41 296.24,379.25" style="fill:none;stroke:black;stroke-width:0.5"/>
<polyline points="299.29,378.93 300.54,376.77" style="fill:none;stroke:black;stroke-width:0.5"/>
<polyline points="303.6,376.45 304.84,374.29" style="fill:none;stroke:black;stroke-width:0.5"/>
<polyline points="305.75,372.73 306.9,370.73" style="fill:none;stroke:black;stroke-width:0.5"/>
<polyline points="267.28,343.02 266.24,341.22" style="fill:none;stroke:black;stroke-width:0.5"/>
<polyline points="269.44,341.78 268.4,339.98" style="fill:none;stroke:black;stroke-width:0.5"/>
<polyline points="271.59,340.54 270.55,338.74" style="fill:none;stroke:black;stroke-width:0.5"/>
<polyline points="275.31,342 274.74,341.02" style="fill:none;stroke:black;stroke-width:0.5"/>
<polyline points="277.68,341.13 277.31,340.5" style="fill:none;stroke:black;stroke-width:0.5"/>
<polyline points="279.62,339.52 279.29,338.95" style="fill:none;stroke:black;stroke-width:0.5"/>
<polyline points="277.36,335.61 277.02,335.01" style="fill:none;stroke:black;stroke-width:0.5"/>
<polyline points="281.26,337.38 280.91,336.79" style="fill:none;stroke:black;stroke-width:0.5"/>
<polyline points="282.54,334.64 282.11,333.89" style="fill:none;stroke:black;stroke-width:0.5"/>
<polyline points="284.52,333.09 283.48,331.29" style="fill:none;stroke:black;stroke-width:0.5"/>
<polyline points="286.68,331.85 285.64,330.05" style="fill:none;stroke:black;stroke-width:0.5"/>
<polyline points="288.76,330.48 287.79,328.81" style="fill:none;stroke:black;stroke-width:0.5"/>
<polyline points="283.7,378.87 284.96,378.14" style="fill:none;stroke:black;stroke-width:0.5"/>
<polyline points="289.3,375.64 290.6,374.89" style="fill:none;stroke:black;stroke-width:0.5"/>
<polyline points="516.87,289.8 516.03,289.31" style="fill:none;stroke:black;stroke-width:0.5"/>
<polyline points="518.09,287.63 517.24,287.15" style="fill:none;stroke:black;stroke-width:0.5"/>
<polyline points="536.3,392.9 534.86,392.06" style="fill:none;stroke:black;stroke-width:0.5"/>
<polyline points="269.29,371.36 268.94,370.76" style="fill:none;stroke:black;stroke-width:0.5"/>
<polyline points="255.49,300.41 257.18,299.43" style="fill:none;stroke:black;stroke-width:0.5"/>
<polyline points="260.46,300.41 262.16,299.43" style="fill:none;stroke:black;stroke-width:0.5"/>
<polyline points="265.43,300.41 267.13,299.43" style="fill:none;stroke:black;stroke-width:0.5"/>
<polyline points="270.41,300.41 272.1,299.43" style="fill:none;stroke:black;stroke-width:0.5"/>
<polyline points="275.38,300.41 277.08,299.43" style="fill:none;stroke:black;stroke-width:0.5"/>
<polyline points="280.35,300.41 282.05,299.43" style="fill:none;stroke:black;stroke-width:0.5"/>
<polyline points="285.33,300.41 287.02,299.43" style="fill:none;stroke:black;stroke-width:0.5"/>
<polyline points="290.3,300.41 291.99,299.43" style="fill:none;stroke:black;stroke-width:0.5"/>
<polyline points="262.8,269.45 262.68,269.37" style="fill:none;stroke:black;stroke-width:0.5"/>
<polyline points="259.24,267.39 259.11,267.32" style="fill:none;stroke:black;stroke-width:0.5"/>
<polyline points="259.62,270.01 260.22,269.41" style="fill:none;stroke:black;stroke-width:0.5"/>
<polyline points="261.8,267.83 262.4,267.23" style="fill:none;stroke:black;stroke-width:0.5"/>
<polyline points="261.5,269.44 261.37,269.31" style="fill:none;stroke:black;stroke-width:0.5"/>
<polyline points="260.08,268.02 259.95,267.89" style="fill:none;stroke:black;stroke-width:0.5"/>
<polyline points="258.71,268.49 257.92,267.12" style="fill:none;stroke:black;stroke-width:0.5"/>
<polyline points="257.83,266.97 257.25,265.96" style="fill:none;stroke:black;stroke-width:0.5"/>
<polyline points="260.37,266.39 260.12,265.96" style="fill:none;stroke:black;stroke-width:0.5"/>
<polyline points="264.46,268.5 263.95,267.62" style="fill:none;stroke:black;stroke-width:0.5"/>
<polyline points="263.86,267.46 262.99,265.96" style="fill:none;stroke:black;stroke-width:0.5"/>
<polyline points="257.06,270.79 257.74,270.4" style="fill:none;stroke:black;stroke-width:0.5"/>
<polyline points="257.79,270.37 259.04,269.65" style="fill:none;stroke:black;stroke-width:0.5"/>
<polyline points="261.6,271.05 263.76,269.79" style="fill:none;stroke:black;stroke-width:0.5"/>
<polyline points="263.79,269.78 264.03,269.64" style="fill:none;stroke:black;stroke-width:0.5"/>
<polyline points="264.04,269.63 264.71,269.25" style="fill:none;stroke:black;stroke-width:0.5"/>
<polyline points="257.92,266.63 257.83,266.58" style="fill:none;stroke:black;stroke-width:0.5"/>
<polyline points="263.53,266.1 263.67,265.96" style="fill:none;stroke:black;stroke-width:0.5"/>
<polyline points="256.89,289.44 256.65,289.2" style="fill:none;stroke:black;stroke-width:0.5"/>
<polyline points="256.46,289.01 256.18,288.73" style="fill:none;stroke:black;stroke-width:0.5"/>
<polyline points="270.33,371.42 270.26,371.37" style="fill:none;stroke:black;stroke-width:0.5"/>
<polyline points="268.3,370.24 268.23,370.2" style="fill:none;stroke:black;stroke-width:0.5"/>
<polyline points="268.15,370.49 269.2,369.44" style="fill:none;stroke:black;stroke-width:0.5"/>
<polyline points="269.13,372.01 269.03,371.91" style="fill:none;stroke:black;stroke-width:0.5"/>
<polyline points="268.46,371.34 268.36,371.24" style="fill:none;stroke:black;stroke-width:0.5"/>
<polyline points="268.87,371.95 269.73,370.47" style="fill:none;stroke:black;stroke-width:0.5"/>
<polyline points="266.95,372.28 266.41,371.34" style="fill:none;stroke:black;stroke-width:0.5"/>
<polyline points="268.44,369.89 268.23,369.53" style="fill:none;stroke:black;stroke-width:0.5"/>
<polyline points="271.29,369.85 271.28,369.83" style="fill:none;stroke:black;stroke-width:0.5"/>
<polyline points="271.21,369.71 270.39,368.28" style="fill:none;stroke:black;stroke-width:0.5"/>
<polyline points="266.41,374.5 271.82,371.38" style="fill:none;stroke:black;stroke-width:0.5"/>
<polyline points="266.96,372.34 266.95,372.33" style="fill:none;stroke:black;stroke-width:0.5"/>
<polyline points="266.1,390.07 265.97,389.95" style="fill:none;stroke:black;stroke-width:0.5"/>
<polyline points="265.85,389.83 265.71,389.68" style="fill:none;stroke:black;stroke-width:0.5"/>
</svg>
