<?xml version="1.0" encoding="UTF-8"?>
<svg xmlns="http://www.w3.org/2000/svg" width="800.000" height="600.000" viewBox="0.0 0.0 800.000 600.000" version="1.1">
  <title>Produce by Acme CAD Converter</title>
  <desc>Produce by Acme CAD Converter</desc>
<polyline points="562.09,497.24 562.09,489.28 567.39,497.24 567.39,489.28" style="fill:none;stroke:black;stroke-width:0.5"/>
<polyline points="570.42,494.21 574.97,494.21 574.97,493.45 574.59,492.69 574.21,492.31 573.45,491.93 572.32,491.93 571.56,492.31 570.8,493.07 570.42,494.21 570.42,494.96 570.8,496.1 571.56,496.86 572.32,497.24 573.45,497.24 574.21,496.86 574.97,496.1" style="fill:none;stroke:black;stroke-width:0.5"/>
<polyline points="577.24,497.24 577.24,489.28" style="fill:none;stroke:black;stroke-width:0.5"/>
<polyline points="581.03,491.93 577.24,495.72" style="fill:none;stroke:black;stroke-width:0.5"/>
<polyline points="578.76,494.21 581.41,497.24" style="fill:none;stroke:black;stroke-width:0.5"/>
<polyline points="585.57,491.93 584.82,492.31 584.06,493.07 583.68,494.21 583.68,494.96 584.06,496.1 584.82,496.86 585.57,497.24 586.71,497.24 587.47,496.86 588.22,496.1 588.6,494.96 588.6,494.21 588.22,493.07 587.47,492.31 586.71,491.93 585.57,491.93" style="fill:none;stroke:black;stroke-width:0.5"/>
<polyline points="590.88,497.24 590.88,489.28 594.28,489.28 595.42,489.66 595.8,490.04 596.18,490.8 596.18,491.56 595.8,492.31 595.42,492.69 594.28,493.07" style="fill:none;stroke:black;stroke-width:0.5"/>
<polyline points="590.88,493.07 594.28,493.07 595.42,493.45 595.8,493.83 596.18,494.59 596.18,495.72 595.8,496.48 595.42,496.86 594.28,497.24 590.88,497.24" style="fill:none;stroke:black;stroke-width:0.5"/>
<polyline points="600.72,491.93 599.97,492.31 599.21,493.07 598.83,494.21 598.83,494.96 599.21,496.1 599.97,496.86 600.72,497.24 601.86,497.24 602.62,496.86 603.37,496.1 603.75,494.96 603.75,494.21 603.37,493.07 602.62,492.31 601.86,491.93 600.72,491.93" style="fill:none;stroke:black;stroke-width:0.5"/>
<polyline points="607.16,489.28 607.16,495.72 607.54,496.86 608.3,497.24 609.06,497.24" style="fill:none;stroke:black;stroke-width:0.5"/>
<polyline points="606.03,491.93 608.68,491.93" style="fill:none;stroke:black;stroke-width:0.5"/>
<polyline points="562.09,505.19 564.36,510.49 566.64,505.19" style="fill:none;stroke:black;stroke-width:0.5"/>
<polyline points="572.7,503.68 572.32,502.92 571.18,502.54 570.42,502.54 569.29,502.92 568.53,504.05 568.15,505.95 568.15,507.84 568.53,509.36 569.29,510.11 570.42,510.49 570.8,510.49 571.94,510.11 572.7,509.36 573.08,508.22 573.08,507.84 572.7,506.71 571.94,505.95 570.8,505.57 570.42,505.57 569.29,505.95 568.53,506.71 568.15,507.84" style="fill:none;stroke:black;stroke-width:0.5"/>
</svg>
