<?xml version="1.0" encoding="UTF-8"?>
<svg xmlns="http://www.w3.org/2000/svg" width="800.000" height="600.000" viewBox="0.0 0.0 800.000 600.000" version="1.1">
  <title>Produce by Acme CAD Converter</title>
  <desc>Produce by Acme CAD Converter</desc>
<polyline points="146.3,89.25 152.65,72.6 158.99,89.25" style="fill:none;stroke:black;stroke-width:0.5"/>
<polyline points="148.68,83.7 156.61,83.7" style="fill:none;stroke:black;stroke-width:0.5"/>
<polyline points="608.55,456.68 600.77,445.9" style="fill:none;stroke:black;stroke-width:0.5"/>
<polyline points="588.82,452.78 599.41,467.46" style="fill:none;stroke:black;stroke-width:0.5"/>
<polyline points="599.41,467.46 600.81,466.55 602.24,465.41 603.64,464.09 604.97,462.64 606.17,461.12 607.19,459.57 607.99,458.07 608.55,456.68" style="fill:none;stroke:black;stroke-width:0.5"/>
<polyline points="599.41,467.46 631.66,486.03" style="fill:none;stroke:black;stroke-width:0.5"/>
<polyline points="645.6,478.01 608.55,456.68" style="fill:none;stroke:black;stroke-width:0.5"/>
<polyline points="600.01,494.69 558.03,470.51" style="fill:none;stroke:black;stroke-width:0.5"/>
<polyline points="601.64,494.52 601.16,494.38 600.61,494.43 600.01,494.69" style="fill:none;stroke:black;stroke-width:0.5"/>
<polyline points="577.02,480.35 599.41,467.46" style="fill:none;stroke:black;stroke-width:0.5"/>
<polyline points="604.38,443.82 648.69,469.33" style="fill:none;stroke:black;stroke-width:0.5"/>
<polyline points="648.69,469.33 648.8,468.44 649.13,467.5 649.64,466.61 650.29,465.86 651,465.32" style="fill:none;stroke:black;stroke-width:0.5"/>
<polyline points="609.03,441.15 651,465.32" style="fill:none;stroke:black;stroke-width:0.5"/>
<polyline points="649.37,475.84 649.85,475.69 650.41,475.74 651,476" style="fill:none;stroke:black;stroke-width:0.5"/>
<polyline points="651,476 652.47,474.99 653.62,473.85 654.4,472.61 654.8,471.32 654.8,470 654.4,468.7 653.62,467.47 652.47,466.33 651,465.32" style="fill:none;stroke:black;stroke-width:0.5"/>
<polyline points="648.69,469.33 649.91,470.19 650.82,471.17 651.38,472.23 651.57,473.34" style="fill:none;stroke:black;stroke-width:0.5"/>
<polyline points="616.92,494.52 617.4,494.38 617.95,494.43 618.55,494.69" style="fill:none;stroke:black;stroke-width:0.5"/>
<polyline points="618.55,494.69 651,476" style="fill:none;stroke:black;stroke-width:0.5"/>
<polyline points="600.01,494.69 601.76,495.53 603.74,496.19 605.89,496.64 608.14,496.87 610.42,496.87 612.67,496.64 614.82,496.19 616.8,495.53 618.55,494.69" style="fill:none;stroke:black;stroke-width:0.5"/>
<polyline points="648.69,469.33 648.69,476.23" style="fill:none;stroke:black;stroke-width:0.5"/>
<polyline points="605.16,506.61 604.88,502.56" style="fill:none;stroke:black;stroke-width:0.5"/>
<polyline points="553.63,473.05 604.88,502.56" style="fill:none;stroke:black;stroke-width:0.5"/>
<polyline points="553.91,477.1 605.16,506.61" style="fill:none;stroke:black;stroke-width:0.5"/>
<polyline points="651,476 664.68,468.12" style="fill:none;stroke:black;stroke-width:0.5"/>
<polyline points="613.43,438.61 664.68,468.12" style="fill:none;stroke:black;stroke-width:0.5"/>
<polyline points="604.88,502.56 618.55,494.69" style="fill:none;stroke:black;stroke-width:0.5"/>
<polyline points="664.68,468.12 664.96,472.17" style="fill:none;stroke:black;stroke-width:0.5"/>
<polyline points="664.96,472.17 662.64,473.5" style="fill:none;stroke:black;stroke-width:0.5"/>
<polyline points="662.64,473.5 661.94,474.05 661.32,474.82 660.85,475.73 660.57,476.7 660.52,477.63" style="fill:none;stroke:black;stroke-width:0.5"/>
<polyline points="660.52,477.63 661.29,488.8" style="fill:none;stroke:black;stroke-width:0.5"/>
<polyline points="661.29,488.8 661.46,489.59 661.85,490.18 662.4,490.5 663.08,490.53 663.8,490.25" style="fill:none;stroke:black;stroke-width:0.5"/>
<polyline points="663.4,490.02 663.8,490.25" style="fill:none;stroke:black;stroke-width:0.5"/>
<polyline points="663.8,490.25 666.12,488.92" style="fill:none;stroke:black;stroke-width:0.5"/>
<polyline points="665.75,488.7 666.12,488.92" style="fill:none;stroke:black;stroke-width:0.5"/>
<polyline points="666.12,488.92 666.4,492.96" style="fill:none;stroke:black;stroke-width:0.5"/>
<polyline points="666.4,492.96 606.59,527.4" style="fill:none;stroke:black;stroke-width:0.5"/>
<polyline points="555.35,497.89 606.59,527.4" style="fill:none;stroke:black;stroke-width:0.5"/>
<polyline points="606.59,527.4 606.31,523.36" style="fill:none;stroke:black;stroke-width:0.5"/>
<polyline points="555.07,493.84 606.31,523.36" style="fill:none;stroke:black;stroke-width:0.5"/>
<polyline points="606.31,523.36 608.63,522.02" style="fill:none;stroke:black;stroke-width:0.5"/>
<polyline points="608.26,521.81 608.63,522.02" style="fill:none;stroke:black;stroke-width:0.5"/>
<polyline points="608.63,522.02 609.34,521.47 609.96,520.7 610.43,519.79 610.7,518.82 610.76,517.9" style="fill:none;stroke:black;stroke-width:0.5"/>
<polyline points="610.52,517.76 610.76,517.9" style="fill:none;stroke:black;stroke-width:0.5"/>
<polyline points="610.76,517.9 609.98,506.73" style="fill:none;stroke:black;stroke-width:0.5"/>
<polyline points="609.74,506.59 609.98,506.73" style="fill:none;stroke:black;stroke-width:0.5"/>
<polyline points="609.98,506.73 609.81,505.93 609.43,505.34 608.87,505.02 608.2,505 607.47,505.27" style="fill:none;stroke:black;stroke-width:0.5"/>
<polyline points="607.47,505.27 605.16,506.61" style="fill:none;stroke:black;stroke-width:0.5"/>
<polyline points="601.64,494.52 558.99,469.96" style="fill:none;stroke:black;stroke-width:0.5"/>
<polyline points="649.37,475.84 649.45,475.79 649.53,475.74 649.61,475.69 649.69,475.64 649.77,475.59 649.84,475.54 649.91,475.49 649.99,475.44 650.06,475.4 650.12,475.35 650.19,475.3 650.25,475.25 650.32,475.2 650.38,475.15 650.44,475.1 650.5,475.05 650.55,475 650.61,474.95 650.66,474.9 650.71,474.86 650.76,474.81 650.8,474.76 650.85,474.71 650.89,474.67 650.94,474.62 650.98,474.58 651.02,474.53 651.05,474.49 651.09,474.44 651.12,474.4 651.16,474.36 651.19,474.31 651.22,474.27 651.24,474.23 651.27,474.19 651.29,474.15 651.32,474.11 651.34,474.08 651.36,474.04 651.38,474 651.4,473.97 651.42,473.93 651.43,473.9 651.45,473.87 651.46,473.83 651.47,473.8 651.48,473.77 651.49,473.74 651.5,473.71 651.51,473.68 651.52,473.66 651.53,473.63 651.54,473.6 651.54,473.58 651.55,473.55 651.55,473.53 651.56,473.5 651.56,473.48 651.56,473.43 651.57,473.38 651.57,473.34" style="fill:none;stroke:black;stroke-width:0.5"/>
<polyline points="649.37,475.84 616.92,494.52" style="fill:none;stroke:black;stroke-width:0.5"/>
<polyline points="601.64,494.52 601.73,494.57 601.81,494.62 601.9,494.67 601.99,494.71 602.08,494.76 602.17,494.81 602.27,494.85 602.36,494.9 602.46,494.94 602.56,494.99 602.66,495.03 602.76,495.08 602.86,495.12 602.96,495.16 603.07,495.2 603.17,495.25 603.28,495.29 603.39,495.33 603.5,495.37 603.61,495.4 603.72,495.44 603.83,495.48 603.95,495.52 604.06,495.55 604.18,495.59 604.3,495.62 604.42,495.66 604.53,495.69 604.66,495.72 604.78,495.75 604.9,495.78 605.02,495.81 605.15,495.84 605.27,495.87 605.4,495.9 605.52,495.93 605.65,495.95 605.78,495.98 605.91,496 606.04,496.02 606.17,496.05 606.3,496.07 606.43,496.09 606.56,496.11 606.69,496.13 606.83,496.14 606.96,496.16 607.09,496.18 607.23,496.19 607.36,496.2 607.5,496.22 607.63,496.23 607.77,496.24 607.91,496.25 608.04,496.26 608.18,496.27 608.32,496.28 608.45,496.28 608.59,496.29 608.73,496.29 608.87,496.29 609,496.3 609.14,496.3 609.28,496.3 609.42,496.3 609.56,496.3 609.69,496.29 609.83,496.29 609.97,496.29 610.11,496.28 610.24,496.28 610.38,496.27 610.52,496.26 610.65,496.25 610.79,496.24 610.92,496.23 611.06,496.22 611.2,496.2 611.33,496.19 611.46,496.18 611.6,496.16 611.73,496.14 611.87,496.12 612,496.11 612.13,496.09 612.26,496.07 612.39,496.05 612.52,496.02 612.65,496 612.78,495.98 612.91,495.95 613.04,495.93 613.16,495.9 613.29,495.87 613.41,495.84 613.54,495.81 613.66,495.78 613.78,495.75 613.9,495.72 614.02,495.69 614.14,495.66 614.26,495.62 614.38,495.59 614.5,495.55 614.61,495.52 614.73,495.48 614.84,495.44 614.95,495.4 615.06,495.37 615.17,495.33 615.28,495.29 615.39,495.25 615.49,495.2 615.6,495.16 615.7,495.12 615.8,495.08 615.9,495.03 616,494.99 616.1,494.94 616.2,494.9 616.29,494.85 616.39,494.81 616.48,494.76 616.57,494.72 616.66,494.67 616.75,494.62 616.83,494.57 616.92,494.52" style="fill:none;stroke:black;stroke-width:0.5"/>
<polyline points="662.66,473.65 664.98,472.31" style="fill:none;stroke:black;stroke-width:0.5"/>
<polyline points="664.98,472.31 664.85,472.24" style="fill:none;stroke:black;stroke-width:0.5"/>
<polyline points="662.66,473.65 662.53,473.57" style="fill:none;stroke:black;stroke-width:0.5"/>
<polyline points="666.1,488.5 663.78,489.84" style="fill:none;stroke:black;stroke-width:0.5"/>
<polyline points="663.78,489.84 663.13,490.09 662.52,490.07 662.02,489.78 661.68,489.25 661.52,488.53" style="fill:none;stroke:black;stroke-width:0.5"/>
<polyline points="661.52,488.53 661.26,488.38" style="fill:none;stroke:black;stroke-width:0.5"/>
<polyline points="661.52,488.53 660.75,477.36" style="fill:none;stroke:black;stroke-width:0.5"/>
<polyline points="660.75,477.36 660.51,477.23" style="fill:none;stroke:black;stroke-width:0.5"/>
<polyline points="660.75,477.36 660.8,476.53 661.05,475.66 661.47,474.83 662.03,474.14 662.66,473.65" style="fill:none;stroke:black;stroke-width:0.5"/>
<polyline points="664.98,472.31 666.1,488.5" style="fill:none;stroke:black;stroke-width:0.5"/>
<polyline points="608.61,521.61 606.3,522.94" style="fill:none;stroke:black;stroke-width:0.5"/>
<polyline points="606.3,522.94 555.04,493.43" style="fill:none;stroke:black;stroke-width:0.5"/>
<polyline points="605.17,506.75 607.49,505.42" style="fill:none;stroke:black;stroke-width:0.5"/>
<polyline points="607.49,505.42 607.36,505.34" style="fill:none;stroke:black;stroke-width:0.5"/>
<polyline points="553.92,477.24 605.17,506.75" style="fill:none;stroke:black;stroke-width:0.5"/>
<polyline points="607.49,505.42 608.15,505.17 608.75,505.19 609.25,505.48 609.6,506.01 609.75,506.73" style="fill:none;stroke:black;stroke-width:0.5"/>
<polyline points="609.75,506.73 610.53,517.9" style="fill:none;stroke:black;stroke-width:0.5"/>
<polyline points="610.53,517.9 610.48,518.73 610.23,519.6 609.81,520.42 609.25,521.11 608.61,521.61" style="fill:none;stroke:black;stroke-width:0.5"/>
<polyline points="606.3,522.94 605.17,506.75" style="fill:none;stroke:black;stroke-width:0.5"/>
<polyline points="661.42,489.47 662.26,489.95" style="fill:none;stroke:black;stroke-width:0.5"/>
<polyline points="608.44,504.97 609.02,505.3" style="fill:none;stroke:black;stroke-width:0.5"/>
<polyline points="464.8,373.72 464.8,373.87 464.81,374.02 464.82,374.17 464.83,374.32 464.85,374.47 464.87,374.62 464.9,374.76 464.93,374.91 464.97,375.06 465.01,375.21 465.05,375.36 465.1,375.5 465.15,375.65 465.2,375.8 465.26,375.94 465.32,376.09 465.39,376.23 465.46,376.37 465.53,376.51 465.61,376.65 465.69,376.79 465.78,376.93 465.87,377.07 465.96,377.21 466.05,377.34 466.15,377.48 466.26,377.61 466.36,377.74 466.47,377.87 466.58,378 466.7,378.13 466.82,378.25 466.94,378.38 467.06,378.5 467.19,378.62 467.32,378.74 467.45,378.86 467.58,378.98 467.72,379.09 467.86,379.21 468,379.32 468.15,379.43 468.29,379.54 468.44,379.65 468.59,379.75 468.74,379.86 468.9,379.96 469.05,380.06 469.21,380.16 469.37,380.26 469.53,380.35 469.69,380.44 470.34,380.82 471.64,381.56 482,387.53 502.74,399.47 523.47,411.41 526.06,412.91 527.36,413.65 527.68,413.84 527.85,413.93 528.02,414.02 528.19,414.11 528.37,414.2 528.55,414.29 528.73,414.38 528.91,414.46 529.1,414.55 529.29,414.63 529.49,414.72 529.68,414.8 529.88,414.88 530.08,414.95 530.29,415.03 530.5,415.11 530.71,415.18 530.92,415.25 531.13,415.32 531.35,415.39 531.57,415.46 531.79,415.53 532.02,415.59 532.25,415.65 532.47,415.71 532.71,415.77 532.94,415.83 533.18,415.88 533.41,415.93 533.65,415.98 533.9,416.03 534.14,416.08 534.38,416.12 534.63,416.16 534.88,416.2 535.13,416.24 535.38,416.27 535.63,416.31 535.88,416.34 536.14,416.37 536.39,416.39 536.65,416.42 536.91,416.44 537.17,416.46 537.42,416.48 537.68,416.49 537.94,416.5 538.2,416.51 538.46,416.52 538.73,416.52 538.99,416.53 539.25,416.53 539.51,416.52 539.77,416.52 540.03,416.51 540.29,416.5 540.55,416.49 540.81,416.48 541.07,416.46 541.33,416.44 541.58,416.42 541.84,416.4 542.1,416.37 542.35,416.34 542.6,416.31 542.86,416.28 543.11,416.24 543.36,416.21 543.61,416.17 543.85,416.13 544.1,416.08 544.34,416.04 544.58,415.99 544.82,415.94 545.06,415.89 545.3,415.84 545.53,415.78 545.76,415.72 545.99,415.66 546.22,415.6 546.45,415.54 546.67,415.47 546.89,415.4 547.11,415.33 547.32,415.26 547.54,415.19 547.75,415.12 547.95,415.04 548.16,414.97 548.36,414.89 548.56,414.81 548.76,414.73 548.95,414.65 549.14,414.56 549.33,414.48 549.52,414.39 549.7,414.31 549.88,414.22 550.06,414.13 550.23,414.04 550.4,413.95 550.57,413.86 550.73,413.76" style="fill:none;stroke:black;stroke-width:0.5"/>
<polyline points="608.68,367.04 590.73,356.71" style="fill:none;stroke:black;stroke-width:0.5"/>
<polyline points="613.9,438.34 613.94,438.9" style="fill:none;stroke:black;stroke-width:0.5"/>
<polyline points="553.63,473.05 613.9,438.34" style="fill:none;stroke:black;stroke-width:0.5"/>
<polyline points="555.37,498.17 553.63,473.05" style="fill:none;stroke:black;stroke-width:0.5"/>
<polyline points="453.26,453.34 453.24,453.49 453.23,453.64 453.22,453.8 453.21,453.95 453.21,454.1 453.21,454.26 453.21,454.41 453.22,454.56 453.24,454.71 453.26,454.87 453.28,455.02 453.31,455.17 453.34,455.32 453.38,455.47 453.42,455.63 453.46,455.78 453.51,455.93 453.56,456.08 453.62,456.23 453.68,456.37 453.75,456.52 453.82,456.67 453.89,456.82 453.97,456.96 454.05,457.11 454.14,457.25 454.23,457.4 454.32,457.54 454.42,457.68 454.52,457.82 454.63,457.96 454.74,458.1 454.85,458.24 454.97,458.38 455.09,458.51 455.22,458.65 455.35,458.78 455.48,458.91 455.62,459.05 455.76,459.17 455.9,459.3 456.05,459.43 456.2,459.56 456.35,459.68 456.51,459.8 456.67,459.92 456.84,460.04 457.01,460.16 457.18,460.28 457.35,460.39 457.53,460.51 457.71,460.62 457.9,460.73 458.08,460.84 458.46,461.06 459.22,461.49 459.98,461.93 460.75,462.37 461.52,462.82 462.29,463.26 463.08,463.71 463.86,464.16 464.65,464.62 465.44,465.08 466.24,465.54 467.04,466 467.85,466.46 468.66,466.93 469.47,467.4 470.29,467.87 471.11,468.34 471.93,468.81 472.75,469.29 473.58,469.76 474.41,470.24 475.25,470.72 476.08,471.2 476.92,471.69 477.77,472.17 478.61,472.66 479.45,473.14 480.3,473.63 481.15,474.12 482,474.61 482.85,475.1 484.56,476.09 486.28,477.07 488,478.06 489.72,479.05 493.16,481.04 496.61,483.02 498.33,484.01 500.04,485 501.75,485.99 503.46,486.97 504.31,487.46 505.16,487.95 506.01,488.44 506.85,488.92 507.7,489.41 508.54,489.89 509.38,490.38 510.22,490.86 511.05,491.34 511.88,491.82 512.71,492.3 513.54,492.77 514.36,493.25 515.18,493.72 516,494.19 516.81,494.66 517.62,495.12 518.42,495.59 519.23,496.05 520.02,496.51 520.82,496.96 521.61,497.42 522.39,497.87 523.18,498.32 523.95,498.77 524.72,499.21 525.49,499.66 526.25,500.09 527.01,500.53 527.39,500.75 527.58,500.86 527.77,500.96 527.96,501.07 528.15,501.17 528.35,501.27 528.55,501.37 528.76,501.47 528.97,501.57 529.18,501.66 529.39,501.75 529.6,501.84 529.82,501.93 530.04,502.02 530.26,502.1 530.49,502.18 530.71,502.26 530.94,502.34 531.17,502.41 531.41,502.49 531.64,502.56 531.88,502.63 532.12,502.69 532.36,502.76 532.6,502.82 532.84,502.88 533.09,502.94 533.34,502.99 533.59,503.05 533.84,503.1 534.09,503.15 534.34,503.19 534.6,503.24 534.85,503.28 535.11,503.32 535.37,503.35 535.63,503.39 535.89,503.42 536.15,503.45 536.41,503.47 536.67,503.5 536.93,503.52 537.2,503.54 537.46,503.56 537.73,503.57 537.99,503.58 538.26,503.59 538.52,503.6 538.79,503.6 539.05,503.6 539.32,503.6 539.58,503.6 539.85,503.6 540.11,503.59 540.38,503.58 540.64,503.56 540.91,503.55 541.17,503.53 541.43,503.51 541.7,503.49 541.96,503.46 542.22,503.44 542.48,503.41 542.74,503.37 543,503.34 543.26,503.3 543.51,503.26 543.77,503.22 544.02,503.18 544.28,503.13 544.53,503.08 544.78,503.03 545.03,502.98 545.27,502.92 545.52,502.86 545.76,502.8 546,502.74 546.24,502.67 546.48,502.6 546.72,502.53 546.95,502.46 547.19,502.39 547.42,502.31 547.64,502.23 547.87,502.15 548.09,502.07 548.32,501.99 548.53,501.9 548.75,501.81 548.96,501.72 549.18,501.63 549.38,501.53 549.59,501.44 549.79,501.34 549.99,501.24 550.19,501.14 550.39,501.03 550.58,500.93 550.77,500.82 551.52,500.38 552.28,499.95 553.04,499.51 553.81,499.06 554.59,498.62 555.37,498.17" style="fill:none;stroke:black;stroke-width:0.5"/>
<polyline points="613.48,373.32 623.75,444.55" style="fill:none;stroke:black;stroke-width:0.5"/>
<polyline points="453.26,453.34 464.8,373.32" style="fill:none;stroke:black;stroke-width:0.5"/>
<polyline points="608.68,380.39 610.09,379.46 611.29,378.44 612.23,377.33 612.92,376.16 613.34,374.95 613.48,373.72" style="fill:none;stroke:black;stroke-width:0.5"/>
<polyline points="550.73,413.76 608.68,380.39" style="fill:none;stroke:black;stroke-width:0.5"/>
<polyline points="527.55,413.76 529.32,414.64 531.28,415.37 533.41,415.93 535.65,416.31 537.97,416.5 540.31,416.5 542.62,416.31 544.87,415.93 546.99,415.37 548.96,414.64 550.73,413.76" style="fill:none;stroke:black;stroke-width:0.5"/>
<polyline points="469.6,380.39 527.55,413.76" style="fill:none;stroke:black;stroke-width:0.5"/>
<polyline points="464.8,373.72 464.94,374.95 465.35,376.16 466.04,377.33 466.99,378.44 468.18,379.46 469.6,380.39" style="fill:none;stroke:black;stroke-width:0.5"/>
<polyline points="527.55,413.76 527.55,306.56" style="fill:none;stroke:black;stroke-width:0.5"/>
<polyline points="550.73,413.76 550.73,306.56" style="fill:none;stroke:black;stroke-width:0.5"/>
<polyline points="527.55,306.56 529.32,307.44 531.28,308.17 533.41,308.73 535.65,309.11 537.97,309.3 540.31,309.3 542.62,309.11 544.87,308.73 546.99,308.17 548.96,307.44 550.73,306.56" style="fill:none;stroke:black;stroke-width:0.5"/>
<polyline points="469.6,380.39 469.6,273.19" style="fill:none;stroke:black;stroke-width:0.5"/>
<polyline points="464.8,266.51 464.94,267.74 465.35,268.95 466.04,270.12 466.99,271.23 468.18,272.26 469.6,273.19" style="fill:none;stroke:black;stroke-width:0.5"/>
<polyline points="608.68,380.39 608.68,273.19" style="fill:none;stroke:black;stroke-width:0.5"/>
<polyline points="550.73,306.56 608.68,273.19" style="fill:none;stroke:black;stroke-width:0.5"/>
<polyline points="608.68,273.19 610.09,272.26 611.29,271.23 612.23,270.12 612.92,268.95 613.34,267.74 613.48,266.51" style="fill:none;stroke:black;stroke-width:0.5"/>
<polyline points="469.6,273.19 527.55,306.56" style="fill:none;stroke:black;stroke-width:0.5"/>
<polyline points="464.8,373.72 464.8,266.51" style="fill:none;stroke:black;stroke-width:0.5"/>
<polyline points="613.48,373.72 613.48,266.51" style="fill:none;stroke:black;stroke-width:0.5"/>
<polyline points="560.37,256.94 560.49,255.54 560.53,254.17" style="fill:none;stroke:black;stroke-width:0.5"/>
<polyline points="517.75,268.13 516.41,266.55 515.43,264.9 514.81,263.18 514.56,261.43 514.68,259.68 515.19,257.95 516.06,256.27 517.28,254.67 518.84,253.16 520.71,251.78 522.86,250.54 525.27,249.46 527.88,248.56 530.67,247.86 533.58,247.36 536.59,247.07 539.63,247 542.66,247.14 545.64,247.5 548.52,248.06 551.26,248.83" style="fill:none;stroke:black;stroke-width:0.5"/>
<polyline points="560.53,254.17 561.86,255.75 562.85,257.41 563.47,259.12 563.72,260.87 563.59,262.62 563.09,264.35 562.22,266.03 561,267.63 559.44,269.14 557.57,270.52 555.41,271.76 553.01,272.84 550.4,273.74 547.61,274.44 544.69,274.94 541.69,275.23 538.65,275.31 535.62,275.16 532.64,274.81 529.76,274.24 527.02,273.47" style="fill:none;stroke:black;stroke-width:0.5"/>
<polyline points="560.53,254.17 527.02,273.47" style="fill:none;stroke:black;stroke-width:0.5"/>
<polyline points="560.37,256.94 530.17,274.33" style="fill:none;stroke:black;stroke-width:0.5"/>
<polyline points="517.75,268.13 551.26,248.83" style="fill:none;stroke:black;stroke-width:0.5"/>
<polyline points="469.6,267.83 527.55,301.2" style="fill:none;stroke:black;stroke-width:0.5"/>
<polyline points="527.55,301.2 529.32,302.08 531.28,302.81 533.41,303.37 535.65,303.75 537.97,303.94 540.31,303.94 542.62,303.75 544.87,303.37 546.99,302.81 548.96,302.08 550.73,301.2" style="fill:none;stroke:black;stroke-width:0.5"/>
<polyline points="550.73,301.2 608.68,267.83" style="fill:none;stroke:black;stroke-width:0.5"/>
<polyline points="608.68,267.83 610.21,266.81 611.48,265.67 612.45,264.45 613.11,263.16 613.44,261.82 613.44,260.48 613.11,259.14 612.45,257.85 611.48,256.63 610.21,255.49 608.68,254.48" style="fill:none;stroke:black;stroke-width:0.5"/>
<polyline points="608.68,254.48 550.73,221.1" style="fill:none;stroke:black;stroke-width:0.5"/>
<polyline points="550.73,221.1 548.96,220.22 546.99,219.49 544.87,218.93 542.62,218.56 540.31,218.36 537.97,218.36 535.65,218.56 533.41,218.93 531.28,219.49 529.32,220.22 527.55,221.1" style="fill:none;stroke:black;stroke-width:0.5"/>
<polyline points="527.55,221.1 469.6,254.48" style="fill:none;stroke:black;stroke-width:0.5"/>
<polyline points="469.6,254.48 468.07,255.49 466.8,256.63 465.83,257.85 465.17,259.14 464.84,260.48 464.84,261.82 465.17,263.16 465.83,264.45 466.8,265.67 468.07,266.81 469.6,267.83" style="fill:none;stroke:black;stroke-width:0.5"/>
<polyline points="527.55,306.56 469.6,273.19" style="fill:none;stroke:black;stroke-width:0.5"/>
<polyline points="469.6,273.19 468.18,272.26 466.99,271.23 466.04,270.12 465.35,268.95 464.94,267.74 464.8,266.51" style="fill:none;stroke:black;stroke-width:0.5"/>
<polyline points="613.48,266.51 613.34,267.74 612.92,268.95 612.23,270.12 611.29,271.23 610.09,272.26 608.68,273.19" style="fill:none;stroke:black;stroke-width:0.5"/>
<polyline points="608.68,273.19 550.73,306.56" style="fill:none;stroke:black;stroke-width:0.5"/>
<polyline points="550.73,306.56 548.96,307.44 546.99,308.17 544.87,308.73 542.62,309.11 540.31,309.3 537.97,309.3 535.65,309.11 533.41,308.73 531.28,308.17 529.32,307.44 527.55,306.56" style="fill:none;stroke:black;stroke-width:0.5"/>
<polyline points="469.6,273.19 469.6,267.83" style="fill:none;stroke:black;stroke-width:0.5"/>
<polyline points="608.68,273.19 608.68,267.83" style="fill:none;stroke:black;stroke-width:0.5"/>
<polyline points="550.73,306.56 550.73,301.2" style="fill:none;stroke:black;stroke-width:0.5"/>
<polyline points="527.55,306.56 527.55,301.2" style="fill:none;stroke:black;stroke-width:0.5"/>
<polyline points="464.8,266.51 464.8,261.15" style="fill:none;stroke:black;stroke-width:0.5"/>
<polyline points="613.48,266.51 613.48,261.15" style="fill:none;stroke:black;stroke-width:0.5"/>
</svg>
