<?xml version="1.0" encoding="UTF-8"?>
<svg xmlns="http://www.w3.org/2000/svg" width="800.000" height="600.000" viewBox="0.0 0.0 800.000 600.000" version="1.1">
  <title>Produce by Acme CAD Converter</title>
  <desc>Produce by Acme CAD Converter</desc>
<polyline points="298.34,276.91 299.41,275.85" style="fill:none;stroke:black;stroke-width:0.5"/>
<polyline points="300.27,278.65 302.82,276.11" style="fill:none;stroke:black;stroke-width:0.5"/>
<polyline points="300.9,281.69 303.77,278.82" style="fill:none;stroke:black;stroke-width:0.5"/>
<polyline points="300.27,286 302.43,283.84" style="fill:none;stroke:black;stroke-width:0.5"/>
<polyline points="300.27,289.67 304.11,285.83" style="fill:none;stroke:black;stroke-width:0.5"/>
<polyline points="300.59,293.02 307.78,285.83" style="fill:none;stroke:black;stroke-width:0.5"/>
<polyline points="300.27,297.01 300.99,296.29" style="fill:none;stroke:black;stroke-width:0.5"/>
<polyline points="305.08,292.2 311.45,285.83" style="fill:none;stroke:black;stroke-width:0.5"/>
<polyline points="300.27,300.68 302.32,298.64" style="fill:none;stroke:black;stroke-width:0.5"/>
<polyline points="308.75,292.2 315.12,285.83" style="fill:none;stroke:black;stroke-width:0.5"/>
<polyline points="298.12,306.5 299.14,305.48" style="fill:none;stroke:black;stroke-width:0.5"/>
<polyline points="300.27,304.35 302.32,302.31" style="fill:none;stroke:black;stroke-width:0.5"/>
<polyline points="312.42,292.2 318.79,285.83" style="fill:none;stroke:black;stroke-width:0.5"/>
<polyline points="301.79,306.5 302.32,305.98" style="fill:none;stroke:black;stroke-width:0.5"/>
<polyline points="316.1,292.2 322.46,285.83" style="fill:none;stroke:black;stroke-width:0.5"/>
<polyline points="328.45,279.85 332.45,275.85" style="fill:none;stroke:black;stroke-width:0.5"/>
<polyline points="319.77,292.2 326.13,285.83" style="fill:none;stroke:black;stroke-width:0.5"/>
<polyline points="331,280.96 334.35,277.62" style="fill:none;stroke:black;stroke-width:0.5"/>
<polyline points="323.44,292.2 328,287.63" style="fill:none;stroke:black;stroke-width:0.5"/>
<polyline points="332.83,282.81 334.63,281" style="fill:none;stroke:black;stroke-width:0.5"/>
<polyline points="327.11,292.2 328.29,291.02" style="fill:none;stroke:black;stroke-width:0.5"/>
<polyline points="333.92,285.39 334.91,284.39" style="fill:none;stroke:black;stroke-width:0.5"/>
<polyline points="328.48,294.5 328.57,294.41" style="fill:none;stroke:black;stroke-width:0.5"/>
<polyline points="334.25,288.73 335.2,287.78" style="fill:none;stroke:black;stroke-width:0.5"/>
<polyline points="334.53,292.12 335.48,291.17" style="fill:none;stroke:black;stroke-width:0.5"/>
<polyline points="334.81,295.51 335.76,294.56" style="fill:none;stroke:black;stroke-width:0.5"/>
<polyline points="300.98,275.85 298.43,273.3" style="fill:none;stroke:black;stroke-width:0.5"/>
<polyline points="302.96,274.16 298.43,269.63" style="fill:none;stroke:black;stroke-width:0.5"/>
<polyline points="300.83,268.36 298.43,265.96" style="fill:none;stroke:black;stroke-width:0.5"/>
<polyline points="299.45,263.31 298.43,262.29" style="fill:none;stroke:black;stroke-width:0.5"/>
<polyline points="299.45,259.64 298.43,258.61" style="fill:none;stroke:black;stroke-width:0.5"/>
<polyline points="299.45,255.97 298.43,254.94" style="fill:none;stroke:black;stroke-width:0.5"/>
<polyline points="299.45,252.29 298.43,251.27" style="fill:none;stroke:black;stroke-width:0.5"/>
<polyline points="328.34,277.51 327.61,276.78" style="fill:none;stroke:black;stroke-width:0.5"/>
<polyline points="299.45,248.62 298.43,247.6" style="fill:none;stroke:black;stroke-width:0.5"/>
<polyline points="330.35,275.85 329.38,274.88" style="fill:none;stroke:black;stroke-width:0.5"/>
<polyline points="299.45,244.95 298.43,243.93" style="fill:none;stroke:black;stroke-width:0.5"/>
<polyline points="334.02,275.85 330.39,272.21" style="fill:none;stroke:black;stroke-width:0.5"/>
<polyline points="299.45,241.28 298.43,240.26" style="fill:none;stroke:black;stroke-width:0.5"/>
<polyline points="334.2,272.36 331.37,269.53" style="fill:none;stroke:black;stroke-width:0.5"/>
<polyline points="299.45,237.61 298.43,236.59" style="fill:none;stroke:black;stroke-width:0.5"/>
<polyline points="334.2,268.69 332.36,266.84" style="fill:none;stroke:black;stroke-width:0.5"/>
<polyline points="334.2,265.02 333.18,263.99" style="fill:none;stroke:black;stroke-width:0.5"/>
<polyline points="334.2,261.34 333.18,260.32" style="fill:none;stroke:black;stroke-width:0.5"/>
<polyline points="334.2,257.67 333.18,256.65" style="fill:none;stroke:black;stroke-width:0.5"/>
<polyline points="334.2,254 333.18,252.98" style="fill:none;stroke:black;stroke-width:0.5"/>
<polyline points="334.2,250.33 333.18,249.31" style="fill:none;stroke:black;stroke-width:0.5"/>
<polyline points="334.2,246.66 333.18,245.64" style="fill:none;stroke:black;stroke-width:0.5"/>
<polyline points="334.2,242.99 333.18,241.97" style="fill:none;stroke:black;stroke-width:0.5"/>
<polyline points="334.2,239.32 333.18,238.3" style="fill:none;stroke:black;stroke-width:0.5"/>
<polyline points="334.2,235.65 333.52,234.97" style="fill:none;stroke:black;stroke-width:0.5"/>
<polyline points="299.66,235.46 301.12,232.92" style="fill:none;stroke:black;stroke-width:0.5"/>
<polyline points="302.35,235.99 304.12,232.92" style="fill:none;stroke:black;stroke-width:0.5"/>
<polyline points="305.35,235.99 307.12,232.92" style="fill:none;stroke:black;stroke-width:0.5"/>
<polyline points="308.34,235.99 309.35,234.25" style="fill:none;stroke:black;stroke-width:0.5"/>
<polyline points="310.67,237.15 311.19,236.26" style="fill:none;stroke:black;stroke-width:0.5"/>
<polyline points="312.94,238.42 313.45,237.52" style="fill:none;stroke:black;stroke-width:0.5"/>
<polyline points="315.64,233.74 316.11,232.92" style="fill:none;stroke:black;stroke-width:0.5"/>
<polyline points="315.58,239.02 316.16,238.03" style="fill:none;stroke:black;stroke-width:0.5"/>
<polyline points="318.75,238.73 319.53,237.39" style="fill:none;stroke:black;stroke-width:0.5"/>
<polyline points="323.33,235.99 325.1,232.92" style="fill:none;stroke:black;stroke-width:0.5"/>
<polyline points="326.33,235.99 328.1,232.92" style="fill:none;stroke:black;stroke-width:0.5"/>
<polyline points="329.33,235.99 331.1,232.92" style="fill:none;stroke:black;stroke-width:0.5"/>
<polyline points="332.32,235.99 334.09,232.92" style="fill:none;stroke:black;stroke-width:0.5"/>
<polyline points="299.75,283.57 298.79,281.91" style="fill:none;stroke:black;stroke-width:0.5"/>
<polyline points="304,285.75 302.98,283.99" style="fill:none;stroke:black;stroke-width:0.5"/>
<polyline points="302.87,283.79 301.69,281.74" style="fill:none;stroke:black;stroke-width:0.5"/>
<polyline points="304.18,280.88 303.53,279.75" style="fill:none;stroke:black;stroke-width:0.5"/>
<polyline points="325.72,297.96 327.76,296.78" style="fill:none;stroke:black;stroke-width:0.5"/>
<polyline points="325.72,300.96 327.76,299.78" style="fill:none;stroke:black;stroke-width:0.5"/>
<polyline points="325.72,303.96 327.76,302.78" style="fill:none;stroke:black;stroke-width:0.5"/>
<polyline points="326.5,306.5 327.76,305.78" style="fill:none;stroke:black;stroke-width:0.5"/>
<polyline points="329.37,306.5 327.76,305.58" style="fill:none;stroke:black;stroke-width:0.5"/>
<polyline points="334.56,306.5 327.76,302.58" style="fill:none;stroke:black;stroke-width:0.5"/>
<polyline points="339.75,306.5 337.92,305.45" style="fill:none;stroke:black;stroke-width:0.5"/>
<polyline points="336.72,304.75 327.76,299.58" style="fill:none;stroke:black;stroke-width:0.5"/>
<polyline points="344.94,306.5 343.17,305.48" style="fill:none;stroke:black;stroke-width:0.5"/>
<polyline points="329.62,297.66 329.05,297.33" style="fill:none;stroke:black;stroke-width:0.5"/>
<polyline points="350.13,306.5 348.36,305.48" style="fill:none;stroke:black;stroke-width:0.5"/>
<polyline points="355.33,306.5 353.56,305.48" style="fill:none;stroke:black;stroke-width:0.5"/>
<polyline points="360.14,306.29 357.43,304.72" style="fill:none;stroke:black;stroke-width:0.5"/>
<polyline points="359.88,303.14 357.89,301.99" style="fill:none;stroke:black;stroke-width:0.5"/>
<polyline points="359.62,299.99 357.89,298.99" style="fill:none;stroke:black;stroke-width:0.5"/>
<polyline points="298.23,295.38 299.73,293.88" style="fill:none;stroke:black;stroke-width:0.5"/>
<polyline points="301.61,295.67 302.42,294.86" style="fill:none;stroke:black;stroke-width:0.5"/>
<polyline points="303.27,294.01 303.65,293.63" style="fill:none;stroke:black;stroke-width:0.5"/>
<polyline points="305.1,295.85 305.89,295.06" style="fill:none;stroke:black;stroke-width:0.5"/>
<polyline points="306.51,294.45 307.81,293.14" style="fill:none;stroke:black;stroke-width:0.5"/>
<polyline points="308.44,296.18 310.99,293.63" style="fill:none;stroke:black;stroke-width:0.5"/>
<polyline points="312.62,295.67 315.18,293.11" style="fill:none;stroke:black;stroke-width:0.5"/>
<polyline points="315.8,296.17 318.6,293.36" style="fill:none;stroke:black;stroke-width:0.5"/>
<polyline points="319.96,295.67 322.01,293.63" style="fill:none;stroke:black;stroke-width:0.5"/>
<polyline points="323.38,295.92 326.17,293.14" style="fill:none;stroke:black;stroke-width:0.5"/>
<polyline points="326.79,296.19 327.76,295.21" style="fill:none;stroke:black;stroke-width:0.5"/>
<polyline points="327.87,295.11 328.48,294.5" style="fill:none;stroke:black;stroke-width:0.5"/>
<polyline points="300.27,286.15 298.23,284.11" style="fill:none;stroke:black;stroke-width:0.5"/>
<polyline points="299.64,281.85 298.23,280.44" style="fill:none;stroke:black;stroke-width:0.5"/>
<polyline points="300.27,278.81 299.68,278.22" style="fill:none;stroke:black;stroke-width:0.5"/>
<polyline points="304.18,284.73 306.23,281.19" style="fill:none;stroke:black;stroke-width:0.5"/>
<polyline points="307.88,283.51 308.74,282.02" style="fill:none;stroke:black;stroke-width:0.5"/>
<polyline points="310.88,283.51 311.74,282.02" style="fill:none;stroke:black;stroke-width:0.5"/>
<polyline points="313.88,283.51 314.74,282.02" style="fill:none;stroke:black;stroke-width:0.5"/>
<polyline points="316.88,283.51 317.74,282.02" style="fill:none;stroke:black;stroke-width:0.5"/>
<polyline points="319.87,283.51 320.73,282.02" style="fill:none;stroke:black;stroke-width:0.5"/>
<polyline points="322.87,283.51 323.73,282.02" style="fill:none;stroke:black;stroke-width:0.5"/>
<polyline points="325.87,283.51 326.73,282.02" style="fill:none;stroke:black;stroke-width:0.5"/>
<polyline points="328.87,283.51 329.73,282.02" style="fill:none;stroke:black;stroke-width:0.5"/>
<polyline points="309,284.02 308.72,283.55" style="fill:none;stroke:black;stroke-width:0.5"/>
<polyline points="307.82,281.98 307.68,281.74" style="fill:none;stroke:black;stroke-width:0.5"/>
<polyline points="311.86,283.79 311.72,283.55" style="fill:none;stroke:black;stroke-width:0.5"/>
<polyline points="310.82,281.98 310.5,281.43" style="fill:none;stroke:black;stroke-width:0.5"/>
<polyline points="315.06,284.14 314.72,283.55" style="fill:none;stroke:black;stroke-width:0.5"/>
<polyline points="313.81,281.98 313.68,281.74" style="fill:none;stroke:black;stroke-width:0.5"/>
<polyline points="317.85,283.79 317.72,283.55" style="fill:none;stroke:black;stroke-width:0.5"/>
<polyline points="316.81,281.98 316.56,281.55" style="fill:none;stroke:black;stroke-width:0.5"/>
<polyline points="321.12,284.26 320.71,283.55" style="fill:none;stroke:black;stroke-width:0.5"/>
<polyline points="319.81,281.98 319.67,281.74" style="fill:none;stroke:black;stroke-width:0.5"/>
<polyline points="323.85,283.79 323.71,283.55" style="fill:none;stroke:black;stroke-width:0.5"/>
<polyline points="322.81,281.98 322.62,281.66" style="fill:none;stroke:black;stroke-width:0.5"/>
<polyline points="327.19,284.38 326.71,283.55" style="fill:none;stroke:black;stroke-width:0.5"/>
<polyline points="325.8,281.98 325.67,281.74" style="fill:none;stroke:black;stroke-width:0.5"/>
<polyline points="329.84,283.79 329.71,283.55" style="fill:none;stroke:black;stroke-width:0.5"/>
<polyline points="328.8,281.98 328.66,281.74" style="fill:none;stroke:black;stroke-width:0.5"/>
<polyline points="314.27,295.58 314.97,295.18" style="fill:none;stroke:black;stroke-width:0.5"/>
<polyline points="317.37,293.79 318.36,293.22" style="fill:none;stroke:black;stroke-width:0.5"/>
<polyline points="316.32,297.4 318.36,296.22" style="fill:none;stroke:black;stroke-width:0.5"/>
<polyline points="316.32,292.98 315.29,292.39" style="fill:none;stroke:black;stroke-width:0.5"/>
<polyline points="296.05,385.66 299.16,382.56" style="fill:none;stroke:black;stroke-width:0.5"/>
<polyline points="297.38,388.01 299.16,386.22" style="fill:none;stroke:black;stroke-width:0.5"/>
<polyline points="297.24,391.81 299.16,389.9" style="fill:none;stroke:black;stroke-width:0.5"/>
<polyline points="297.24,395.48 306.71,386.02" style="fill:none;stroke:black;stroke-width:0.5"/>
<polyline points="317.78,374.95 321.37,371.35" style="fill:none;stroke:black;stroke-width:0.5"/>
<polyline points="303.09,393.3 315.36,381.03" style="fill:none;stroke:black;stroke-width:0.5"/>
<polyline points="320.44,375.96 321.52,374.88" style="fill:none;stroke:black;stroke-width:0.5"/>
<polyline points="297.24,402.83 298.69,401.38" style="fill:none;stroke:black;stroke-width:0.5"/>
<polyline points="311.75,388.32 316.96,383.11" style="fill:none;stroke:black;stroke-width:0.5"/>
<polyline points="321.18,378.88 321.89,378.18" style="fill:none;stroke:black;stroke-width:0.5"/>
<polyline points="294.18,409.56 294.8,408.94" style="fill:none;stroke:black;stroke-width:0.5"/>
<polyline points="297.24,406.5 298.69,405.05" style="fill:none;stroke:black;stroke-width:0.5"/>
<polyline points="316.75,386.98 317.22,386.52" style="fill:none;stroke:black;stroke-width:0.5"/>
<polyline points="321.44,382.3 322.14,381.59" style="fill:none;stroke:black;stroke-width:0.5"/>
<polyline points="321.7,385.71 322.4,385.01" style="fill:none;stroke:black;stroke-width:0.5"/>
<polyline points="297.92,382.92 295.94,380.94" style="fill:none;stroke:black;stroke-width:0.5"/>
<polyline points="298.92,380.24 295.94,377.27" style="fill:none;stroke:black;stroke-width:0.5"/>
<polyline points="296.66,374.32 295.94,373.6" style="fill:none;stroke:black;stroke-width:0.5"/>
<polyline points="296.66,370.65 295.94,369.93" style="fill:none;stroke:black;stroke-width:0.5"/>
<polyline points="296.66,366.98 295.94,366.25" style="fill:none;stroke:black;stroke-width:0.5"/>
<polyline points="296.66,363.31 295.94,362.58" style="fill:none;stroke:black;stroke-width:0.5"/>
<polyline points="296.66,359.64 295.94,358.91" style="fill:none;stroke:black;stroke-width:0.5"/>
<polyline points="296.66,355.96 295.94,355.24" style="fill:none;stroke:black;stroke-width:0.5"/>
<polyline points="317.29,372.91 316.85,372.47" style="fill:none;stroke:black;stroke-width:0.5"/>
<polyline points="296.66,352.29 295.94,351.57" style="fill:none;stroke:black;stroke-width:0.5"/>
<polyline points="318.88,370.84 318.02,369.98" style="fill:none;stroke:black;stroke-width:0.5"/>
<polyline points="321.21,369.5 318.8,367.09" style="fill:none;stroke:black;stroke-width:0.5"/>
<polyline points="321.23,365.85 319.58,364.19" style="fill:none;stroke:black;stroke-width:0.5"/>
<polyline points="321.23,362.18 320.35,361.3" style="fill:none;stroke:black;stroke-width:0.5"/>
<polyline points="321.23,358.51 320.51,357.79" style="fill:none;stroke:black;stroke-width:0.5"/>
<polyline points="321.23,354.84 320.51,354.11" style="fill:none;stroke:black;stroke-width:0.5"/>
<polyline points="321.23,351.17 320.51,350.44" style="fill:none;stroke:black;stroke-width:0.5"/>
<polyline points="321.23,347.5 320.51,346.77" style="fill:none;stroke:black;stroke-width:0.5"/>
<polyline points="321.23,343.82 320.51,343.1" style="fill:none;stroke:black;stroke-width:0.5"/>
<polyline points="321.23,340.15 320.51,339.43" style="fill:none;stroke:black;stroke-width:0.5"/>
<polyline points="321.23,336.48 320.97,336.22" style="fill:none;stroke:black;stroke-width:0.5"/>
<polyline points="296.19,350.49 297.63,347.99" style="fill:none;stroke:black;stroke-width:0.5"/>
<polyline points="299.96,349.16 302.13,345.4" style="fill:none;stroke:black;stroke-width:0.5"/>
<polyline points="304.07,347.22 304.58,346.34" style="fill:none;stroke:black;stroke-width:0.5"/>
<polyline points="306.97,347.39 307.58,346.34" style="fill:none;stroke:black;stroke-width:0.5"/>
<polyline points="312.69,342.67 315.6,337.64" style="fill:none;stroke:black;stroke-width:0.5"/>
<polyline points="317.92,338.81 320.09,335.06" style="fill:none;stroke:black;stroke-width:0.5"/>
<polyline points="297.91,389.41 297.24,388.26" style="fill:none;stroke:black;stroke-width:0.5"/>
<polyline points="300.01,387.86 299.16,386.39" style="fill:none;stroke:black;stroke-width:0.5"/>
<polyline points="315.24,390.94 316.68,390.1" style="fill:none;stroke:black;stroke-width:0.5"/>
<polyline points="315.24,393.94 316.68,393.1" style="fill:none;stroke:black;stroke-width:0.5"/>
<polyline points="315.24,396.93 316.68,396.1" style="fill:none;stroke:black;stroke-width:0.5"/>
<polyline points="318.48,396.14 316.68,395.1" style="fill:none;stroke:black;stroke-width:0.5"/>
<polyline points="321.08,394.64 316.68,392.1" style="fill:none;stroke:black;stroke-width:0.5"/>
<polyline points="323.68,393.14 317.16,389.38" style="fill:none;stroke:black;stroke-width:0.5"/>
<polyline points="326.28,391.65 325.56,391.23" style="fill:none;stroke:black;stroke-width:0.5"/>
<polyline points="328.88,390.15 328.16,389.73" style="fill:none;stroke:black;stroke-width:0.5"/>
<polyline points="331.48,388.65 330.76,388.24" style="fill:none;stroke:black;stroke-width:0.5"/>
<polyline points="334.08,387.16 333.35,386.74" style="fill:none;stroke:black;stroke-width:0.5"/>
<polyline points="336.68,385.66 335.95,385.24" style="fill:none;stroke:black;stroke-width:0.5"/>
<polyline points="339.28,384.16 337.8,383.31" style="fill:none;stroke:black;stroke-width:0.5"/>
<polyline points="339.38,381.23 337.98,380.42" style="fill:none;stroke:black;stroke-width:0.5"/>
<polyline points="339.15,378.09 338.18,377.54" style="fill:none;stroke:black;stroke-width:0.5"/>
<polyline points="296.68,392.69 295.8,391.81" style="fill:none;stroke:black;stroke-width:0.5"/>
<polyline points="296.38,388.71 295.8,388.14" style="fill:none;stroke:black;stroke-width:0.5"/>
<polyline points="297.24,385.91 296.82,385.49" style="fill:none;stroke:black;stroke-width:0.5"/>
<polyline points="300.01,385.41 300.44,384.65" style="fill:none;stroke:black;stroke-width:0.5"/>
<polyline points="300.67,389.45 301.45,388.1" style="fill:none;stroke:black;stroke-width:0.5"/>
<polyline points="302.28,386.67 303.33,384.85" style="fill:none;stroke:black;stroke-width:0.5"/>
<polyline points="306.77,384.09 307.82,382.26" style="fill:none;stroke:black;stroke-width:0.5"/>
<polyline points="311.26,381.5 312.31,379.68" style="fill:none;stroke:black;stroke-width:0.5"/>
<polyline points="315.75,378.91 316.8,377.09" style="fill:none;stroke:black;stroke-width:0.5"/>
<polyline points="302.92,387.71 302.32,386.68" style="fill:none;stroke:black;stroke-width:0.5"/>
<polyline points="301.77,385.72 301.68,385.57" style="fill:none;stroke:black;stroke-width:0.5"/>
<polyline points="304.66,385.53 304.57,385.38" style="fill:none;stroke:black;stroke-width:0.5"/>
<polyline points="304.02,384.42 303.93,384.27" style="fill:none;stroke:black;stroke-width:0.5"/>
<polyline points="307.34,384.99 306.82,384.09" style="fill:none;stroke:black;stroke-width:0.5"/>
<polyline points="306.27,383.13 306.18,382.98" style="fill:none;stroke:black;stroke-width:0.5"/>
<polyline points="309.16,382.94 309.07,382.79" style="fill:none;stroke:black;stroke-width:0.5"/>
<polyline points="308.52,381.83 308.43,381.68" style="fill:none;stroke:black;stroke-width:0.5"/>
<polyline points="311.77,382.27 311.32,381.5" style="fill:none;stroke:black;stroke-width:0.5"/>
<polyline points="310.77,380.53 310.68,380.39" style="fill:none;stroke:black;stroke-width:0.5"/>
<polyline points="313.65,380.35 313.57,380.2" style="fill:none;stroke:black;stroke-width:0.5"/>
<polyline points="313.02,379.24 312.93,379.09" style="fill:none;stroke:black;stroke-width:0.5"/>
<polyline points="316.19,379.54 315.82,378.9" style="fill:none;stroke:black;stroke-width:0.5"/>
<polyline points="315.26,377.94 315.18,377.8" style="fill:none;stroke:black;stroke-width:0.5"/>
<polyline points="318.15,377.76 318.07,377.61" style="fill:none;stroke:black;stroke-width:0.5"/>
<polyline points="317.51,376.65 317.39,376.44" style="fill:none;stroke:black;stroke-width:0.5"/>
<polyline points="308.59,390.42 308.12,390.15" style="fill:none;stroke:black;stroke-width:0.5"/>
<polyline points="534.93,278.94 538.02,275.85" style="fill:none;stroke:black;stroke-width:0.5"/>
<polyline points="534.59,282.95 540.46,277.08" style="fill:none;stroke:black;stroke-width:0.5"/>
<polyline points="534.26,286.95 542.4,278.81" style="fill:none;stroke:black;stroke-width:0.5"/>
<polyline points="533.92,290.96 544.59,280.29" style="fill:none;stroke:black;stroke-width:0.5"/>
<polyline points="533.59,294.96 547.05,281.5" style="fill:none;stroke:black;stroke-width:0.5"/>
<polyline points="533.26,298.97 549.87,282.36" style="fill:none;stroke:black;stroke-width:0.5"/>
<polyline points="532.92,302.97 550.93,284.96" style="fill:none;stroke:black;stroke-width:0.5"/>
<polyline points="533.06,306.5 539.78,299.78" style="fill:none;stroke:black;stroke-width:0.5"/>
<polyline points="542.46,297.1 553.83,285.73" style="fill:none;stroke:black;stroke-width:0.5"/>
<polyline points="556.04,283.53 557.53,282.03" style="fill:none;stroke:black;stroke-width:0.5"/>
<polyline points="536.73,306.5 539.78,303.45" style="fill:none;stroke:black;stroke-width:0.5"/>
<polyline points="546.13,297.1 567.39,275.85" style="fill:none;stroke:black;stroke-width:0.5"/>
<polyline points="549.81,297.1 550.62,296.29" style="fill:none;stroke:black;stroke-width:0.5"/>
<polyline points="554.69,292.22 570.96,275.95" style="fill:none;stroke:black;stroke-width:0.5"/>
<polyline points="555.52,295.06 571.24,279.34" style="fill:none;stroke:black;stroke-width:0.5"/>
<polyline points="557.15,297.1 571.53,282.72" style="fill:none;stroke:black;stroke-width:0.5"/>
<polyline points="560.82,297.1 571.81,286.11" style="fill:none;stroke:black;stroke-width:0.5"/>
<polyline points="564.49,297.1 572.09,289.5" style="fill:none;stroke:black;stroke-width:0.5"/>
<polyline points="566.35,298.91 572.37,292.89" style="fill:none;stroke:black;stroke-width:0.5"/>
<polyline points="566.35,302.58 572.66,296.28" style="fill:none;stroke:black;stroke-width:0.5"/>
<polyline points="566.35,306.25 572.94,299.67" style="fill:none;stroke:black;stroke-width:0.5"/>
<polyline points="569.77,306.5 573.22,303.06" style="fill:none;stroke:black;stroke-width:0.5"/>
<polyline points="573.44,306.5 573.5,306.44" style="fill:none;stroke:black;stroke-width:0.5"/>
<polyline points="535.92,275.85 535.18,275.11" style="fill:none;stroke:black;stroke-width:0.5"/>
<polyline points="542.49,278.74 535.18,271.44" style="fill:none;stroke:black;stroke-width:0.5"/>
<polyline points="549.6,282.18 548.1,280.68" style="fill:none;stroke:black;stroke-width:0.5"/>
<polyline points="538.64,271.23 535.18,267.76" style="fill:none;stroke:black;stroke-width:0.5"/>
<polyline points="536.5,265.41 535.18,264.09" style="fill:none;stroke:black;stroke-width:0.5"/>
<polyline points="556.86,282.1 556.13,281.37" style="fill:none;stroke:black;stroke-width:0.5"/>
<polyline points="536.21,261.44 535.18,260.42" style="fill:none;stroke:black;stroke-width:0.5"/>
<polyline points="559.6,281.17 558.82,280.39" style="fill:none;stroke:black;stroke-width:0.5"/>
<polyline points="536.21,257.77 535.18,256.75" style="fill:none;stroke:black;stroke-width:0.5"/>
<polyline points="562,279.89 561.26,279.15" style="fill:none;stroke:black;stroke-width:0.5"/>
<polyline points="536.21,254.1 535.18,253.08" style="fill:none;stroke:black;stroke-width:0.5"/>
<polyline points="564.13,278.36 563.4,277.63" style="fill:none;stroke:black;stroke-width:0.5"/>
<polyline points="536.21,250.43 535.18,249.41" style="fill:none;stroke:black;stroke-width:0.5"/>
<polyline points="566.01,276.57 565.29,275.84" style="fill:none;stroke:black;stroke-width:0.5"/>
<polyline points="536.21,246.76 535.18,245.74" style="fill:none;stroke:black;stroke-width:0.5"/>
<polyline points="568.96,275.85 566.64,273.53" style="fill:none;stroke:black;stroke-width:0.5"/>
<polyline points="536.21,243.09 535.18,242.07" style="fill:none;stroke:black;stroke-width:0.5"/>
<polyline points="570.95,274.17 567.63,270.85" style="fill:none;stroke:black;stroke-width:0.5"/>
<polyline points="536.21,239.42 535.18,238.4" style="fill:none;stroke:black;stroke-width:0.5"/>
<polyline points="570.95,270.49 568.62,268.16" style="fill:none;stroke:black;stroke-width:0.5"/>
<polyline points="536.21,235.75 535.43,234.97" style="fill:none;stroke:black;stroke-width:0.5"/>
<polyline points="570.95,266.82 569.61,265.48" style="fill:none;stroke:black;stroke-width:0.5"/>
<polyline points="570.95,263.15 569.93,262.13" style="fill:none;stroke:black;stroke-width:0.5"/>
<polyline points="570.95,259.48 569.93,258.46" style="fill:none;stroke:black;stroke-width:0.5"/>
<polyline points="570.95,255.81 569.93,254.79" style="fill:none;stroke:black;stroke-width:0.5"/>
<polyline points="570.95,252.14 569.93,251.12" style="fill:none;stroke:black;stroke-width:0.5"/>
<polyline points="570.95,248.47 569.93,247.45" style="fill:none;stroke:black;stroke-width:0.5"/>
<polyline points="570.95,244.8 569.93,243.78" style="fill:none;stroke:black;stroke-width:0.5"/>
<polyline points="570.95,241.13 569.93,240.1" style="fill:none;stroke:black;stroke-width:0.5"/>
<polyline points="570.95,237.46 569.93,236.43" style="fill:none;stroke:black;stroke-width:0.5"/>
<polyline points="536.41,235.53 537.91,232.92" style="fill:none;stroke:black;stroke-width:0.5"/>
<polyline points="539.14,235.99 540.91,232.92" style="fill:none;stroke:black;stroke-width:0.5"/>
<polyline points="542.14,235.99 543.91,232.92" style="fill:none;stroke:black;stroke-width:0.5"/>
<polyline points="545.14,235.99 546.14,234.26" style="fill:none;stroke:black;stroke-width:0.5"/>
<polyline points="546.43,233.74 546.91,232.92" style="fill:none;stroke:black;stroke-width:0.5"/>
<polyline points="547.46,237.15 547.98,236.26" style="fill:none;stroke:black;stroke-width:0.5"/>
<polyline points="549.43,233.74 549.9,232.92" style="fill:none;stroke:black;stroke-width:0.5"/>
<polyline points="549.73,238.41 550.25,237.51" style="fill:none;stroke:black;stroke-width:0.5"/>
<polyline points="552.43,233.74 552.9,232.92" style="fill:none;stroke:black;stroke-width:0.5"/>
<polyline points="552.39,239.01 552.96,238.01" style="fill:none;stroke:black;stroke-width:0.5"/>
<polyline points="555.43,233.74 555.9,232.92" style="fill:none;stroke:black;stroke-width:0.5"/>
<polyline points="555.56,238.69 556.35,237.33" style="fill:none;stroke:black;stroke-width:0.5"/>
<polyline points="558.42,233.74 558.9,232.92" style="fill:none;stroke:black;stroke-width:0.5"/>
<polyline points="560.12,235.99 561.89,232.92" style="fill:none;stroke:black;stroke-width:0.5"/>
<polyline points="563.12,235.99 564.89,232.92" style="fill:none;stroke:black;stroke-width:0.5"/>
<polyline points="566.12,235.99 567.89,232.92" style="fill:none;stroke:black;stroke-width:0.5"/>
<polyline points="569.11,235.99 570.88,232.92" style="fill:none;stroke:black;stroke-width:0.5"/>
<polyline points="552.33,295.36 551.77,294.38" style="fill:none;stroke:black;stroke-width:0.5"/>
<polyline points="553.94,283.3 553.72,283.17" style="fill:none;stroke:black;stroke-width:0.5"/>
<polyline points="552.37,282.39 551.76,282.04" style="fill:none;stroke:black;stroke-width:0.5"/>
<polyline points="551.66,295.25 553.27,293.64" style="fill:none;stroke:black;stroke-width:0.5"/>
<polyline points="545.22,292.48 544.51,291.77" style="fill:none;stroke:black;stroke-width:0.5"/>
<polyline points="544.19,291.46 543.18,290.45" style="fill:none;stroke:black;stroke-width:0.5"/>
<polyline points="542.46,292.53 543.03,291.56" style="fill:none;stroke:black;stroke-width:0.5"/>
<polyline points="544.2,289.52 544.77,288.54" style="fill:none;stroke:black;stroke-width:0.5"/>
<polyline points="544.67,293.9 545.56,292.36" style="fill:none;stroke:black;stroke-width:0.5"/>
<polyline points="546.17,291.31 547.25,289.44" style="fill:none;stroke:black;stroke-width:0.5"/>
<polyline points="547.08,294.91 549.66,290.45" style="fill:none;stroke:black;stroke-width:0.5"/>
<polyline points="549.5,295.92 552.07,291.46" style="fill:none;stroke:black;stroke-width:0.5"/>
<polyline points="551.91,296.94 552.39,296.11" style="fill:none;stroke:black;stroke-width:0.5"/>
<polyline points="553.99,293.33 554.46,292.51" style="fill:none;stroke:black;stroke-width:0.5"/>
<polyline points="566.54,368.48 567.01,368.01" style="fill:none;stroke:black;stroke-width:0.5"/>
<polyline points="566.24,372.45 569.34,369.35" style="fill:none;stroke:black;stroke-width:0.5"/>
<polyline points="565.94,376.42 570.75,371.61" style="fill:none;stroke:black;stroke-width:0.5"/>
<polyline points="565.64,380.39 572.21,373.82" style="fill:none;stroke:black;stroke-width:0.5"/>
<polyline points="565.34,384.35 573.82,375.88" style="fill:none;stroke:black;stroke-width:0.5"/>
<polyline points="565.04,388.32 575.59,377.78" style="fill:none;stroke:black;stroke-width:0.5"/>
<polyline points="565.08,391.96 569.84,387.2" style="fill:none;stroke:black;stroke-width:0.5"/>
<polyline points="569.96,387.08 577.1,379.93" style="fill:none;stroke:black;stroke-width:0.5"/>
<polyline points="567.41,393.3 569.84,390.87" style="fill:none;stroke:black;stroke-width:0.5"/>
<polyline points="572.28,388.42 578.29,382.42" style="fill:none;stroke:black;stroke-width:0.5"/>
<polyline points="569.74,394.64 569.84,394.54" style="fill:none;stroke:black;stroke-width:0.5"/>
<polyline points="574.61,389.77 582.47,381.91" style="fill:none;stroke:black;stroke-width:0.5"/>
<polyline points="576.94,391.11 577.5,390.55" style="fill:none;stroke:black;stroke-width:0.5"/>
<polyline points="579.49,388.56 586.06,381.99" style="fill:none;stroke:black;stroke-width:0.5"/>
<polyline points="580.97,390.75 590.3,381.42" style="fill:none;stroke:black;stroke-width:0.5"/>
<polyline points="581.6,393.79 591.96,383.44" style="fill:none;stroke:black;stroke-width:0.5"/>
<polyline points="583.93,395.13 592.2,386.87" style="fill:none;stroke:black;stroke-width:0.5"/>
<polyline points="586.26,396.47 592.43,390.3" style="fill:none;stroke:black;stroke-width:0.5"/>
<polyline points="588.59,397.81 592.67,393.74" style="fill:none;stroke:black;stroke-width:0.5"/>
<polyline points="588.63,401.45 592.91,397.17" style="fill:none;stroke:black;stroke-width:0.5"/>
<polyline points="588.63,405.12 593.15,400.6" style="fill:none;stroke:black;stroke-width:0.5"/>
<polyline points="590.7,406.72 593.38,404.04" style="fill:none;stroke:black;stroke-width:0.5"/>
<polyline points="593.03,408.06 593.62,407.47" style="fill:none;stroke:black;stroke-width:0.5"/>
<polyline points="583.34,382 582.24,380.9" style="fill:none;stroke:black;stroke-width:0.5"/>
<polyline points="569.88,368.54 566.59,365.25" style="fill:none;stroke:black;stroke-width:0.5"/>
<polyline points="586.72,381.71 585.93,380.92" style="fill:none;stroke:black;stroke-width:0.5"/>
<polyline points="568.53,363.52 566.59,361.58" style="fill:none;stroke:black;stroke-width:0.5"/>
<polyline points="589.84,381.15 588.34,379.65" style="fill:none;stroke:black;stroke-width:0.5"/>
<polyline points="567.31,358.63 566.59,357.91" style="fill:none;stroke:black;stroke-width:0.5"/>
<polyline points="591.88,379.53 589.45,377.1" style="fill:none;stroke:black;stroke-width:0.5"/>
<polyline points="591.88,375.86 590.48,374.46" style="fill:none;stroke:black;stroke-width:0.5"/>
<polyline points="567.31,354.96 566.59,354.23" style="fill:none;stroke:black;stroke-width:0.5"/>
<polyline points="567.31,351.29 566.59,350.56" style="fill:none;stroke:black;stroke-width:0.5"/>
<polyline points="591.88,372.18 591.16,371.46" style="fill:none;stroke:black;stroke-width:0.5"/>
<polyline points="591.88,368.51 591.16,367.79" style="fill:none;stroke:black;stroke-width:0.5"/>
<polyline points="591.88,364.84 591.16,364.12" style="fill:none;stroke:black;stroke-width:0.5"/>
<polyline points="591.88,361.17 591.16,360.45" style="fill:none;stroke:black;stroke-width:0.5"/>
<polyline points="567.31,347.62 566.59,346.89" style="fill:none;stroke:black;stroke-width:0.5"/>
<polyline points="567.31,343.94 566.59,343.22" style="fill:none;stroke:black;stroke-width:0.5"/>
<polyline points="567.31,340.27 566.59,339.55" style="fill:none;stroke:black;stroke-width:0.5"/>
<polyline points="567.31,336.6 566.59,335.88" style="fill:none;stroke:black;stroke-width:0.5"/>
<polyline points="591.88,357.5 591.16,356.78" style="fill:none;stroke:black;stroke-width:0.5"/>
<polyline points="591.88,353.83 591.16,353.11" style="fill:none;stroke:black;stroke-width:0.5"/>
<polyline points="591.88,350.16 591.16,349.44" style="fill:none;stroke:black;stroke-width:0.5"/>
<polyline points="566.59,333.81 567.08,332.96" style="fill:none;stroke:black;stroke-width:0.5"/>
<polyline points="568.25,336.13 569.33,334.25" style="fill:none;stroke:black;stroke-width:0.5"/>
<polyline points="570.49,337.43 571.58,335.55" style="fill:none;stroke:black;stroke-width:0.5"/>
<polyline points="572.74,338.73 573.83,336.84" style="fill:none;stroke:black;stroke-width:0.5"/>
<polyline points="574.78,340.38 575.12,339.8" style="fill:none;stroke:black;stroke-width:0.5"/>
<polyline points="575.79,338.64 576.08,338.14" style="fill:none;stroke:black;stroke-width:0.5"/>
<polyline points="576.47,342.65 576.8,342.09" style="fill:none;stroke:black;stroke-width:0.5"/>
<polyline points="578.04,339.94 578.33,339.44" style="fill:none;stroke:black;stroke-width:0.5"/>
<polyline points="578.44,344.44 578.79,343.83" style="fill:none;stroke:black;stroke-width:0.5"/>
<polyline points="580.29,341.23 580.58,340.73" style="fill:none;stroke:black;stroke-width:0.5"/>
<polyline points="580.75,345.62 581.2,344.85" style="fill:none;stroke:black;stroke-width:0.5"/>
<polyline points="582.54,342.53 582.83,342.03" style="fill:none;stroke:black;stroke-width:0.5"/>
<polyline points="583.87,345.41 585.08,343.32" style="fill:none;stroke:black;stroke-width:0.5"/>
<polyline points="586.24,346.5 587.33,344.62" style="fill:none;stroke:black;stroke-width:0.5"/>
<polyline points="588.49,347.79 589.58,345.91" style="fill:none;stroke:black;stroke-width:0.5"/>
<polyline points="590.74,349.09 591.01,348.61" style="fill:none;stroke:black;stroke-width:0.5"/>
<polyline points="591.1,348.46 591.83,347.21" style="fill:none;stroke:black;stroke-width:0.5"/>
<polyline points="578.15,389.9 578.99,389.06" style="fill:none;stroke:black;stroke-width:0.5"/>
<polyline points="579.95,391.77 580.23,391.49" style="fill:none;stroke:black;stroke-width:0.5"/>
<polyline points="574.06,383.73 573.72,383.4" style="fill:none;stroke:black;stroke-width:0.5"/>
<polyline points="573.45,383.12 573.04,382.71" style="fill:none;stroke:black;stroke-width:0.5"/>
<polyline points="571.52,382.37 571.72,382.03" style="fill:none;stroke:black;stroke-width:0.5"/>
<polyline points="572.62,385.67 572.92,385.14" style="fill:none;stroke:black;stroke-width:0.5"/>
<polyline points="573.92,383.41 574.24,382.86" style="fill:none;stroke:black;stroke-width:0.5"/>
<polyline points="574.48,387.64 576.1,384.83" style="fill:none;stroke:black;stroke-width:0.5"/>
<polyline points="576.34,389.61 577.96,386.8" style="fill:none;stroke:black;stroke-width:0.5"/>
<polyline points="578.2,391.58 578.51,391.03" style="fill:none;stroke:black;stroke-width:0.5"/>
<polyline points="579.51,389.3 579.82,388.77" style="fill:none;stroke:black;stroke-width:0.5"/>
<polyline points="580.64,392.54 580.98,391.94" style="fill:none;stroke:black;stroke-width:0.5"/>
</svg>
